<svg width="28" height="28" viewBox="0 0 28 28" fill="none" xmlns="http://www.w3.org/2000/svg">
<path d="M1.71528 15.6529H10.6699C11.0657 15.6529 11.4453 15.4957 11.7252 15.2158C12.0051 14.9359 12.1624 14.5563 12.1624 14.1605V2.22096C12.1624 1.82514 12.0051 1.44553 11.7252 1.16564C11.4453 0.885754 11.0657 0.728516 10.6699 0.728516H1.71528C1.31946 0.728516 0.939852 0.885754 0.659965 1.16564C0.380078 1.44553 0.222839 1.82514 0.222839 2.22096V14.1605C0.222839 14.5563 0.380078 14.9359 0.659965 15.2158C0.939852 15.4957 1.31946 15.6529 1.71528 15.6529ZM0.222839 26.1C0.222839 26.4958 0.380078 26.8754 0.659965 27.1553C0.939852 27.4352 1.31946 27.5924 1.71528 27.5924H10.6699C11.0657 27.5924 11.4453 27.4352 11.7252 27.1553C12.0051 26.8754 12.1624 26.4958 12.1624 26.1V20.1302C12.1624 19.7344 12.0051 19.3548 11.7252 19.0749C11.4453 18.795 11.0657 18.6378 10.6699 18.6378H1.71528C1.31946 18.6378 0.939852 18.795 0.659965 19.0749C0.380078 19.3548 0.222839 19.7344 0.222839 20.1302V26.1ZM15.1472 26.1C15.1472 26.4958 15.3045 26.8754 15.5844 27.1553C15.8643 27.4352 16.2439 27.5924 16.6397 27.5924H25.5943C25.9901 27.5924 26.3697 27.4352 26.6496 27.1553C26.9295 26.8754 27.0868 26.4958 27.0868 26.1V15.6529C27.0868 15.2571 26.9295 14.8775 26.6496 14.5976C26.3697 14.3177 25.9901 14.1605 25.5943 14.1605H16.6397C16.2439 14.1605 15.8643 14.3177 15.5844 14.5976C15.3045 14.8775 15.1472 15.2571 15.1472 15.6529V26.1ZM16.6397 11.1756H25.5943C25.9901 11.1756 26.3697 11.0184 26.6496 10.7385C26.9295 10.4586 27.0868 10.079 27.0868 9.68316V2.22096C27.0868 1.82514 26.9295 1.44553 26.6496 1.16564C26.3697 0.885754 25.9901 0.728516 25.5943 0.728516H16.6397C16.2439 0.728516 15.8643 0.885754 15.5844 1.16564C15.3045 1.44553 15.1472 1.82514 15.1472 2.22096V9.68316C15.1472 10.079 15.3045 10.4586 15.5844 10.7385C15.8643 11.0184 16.2439 11.1756 16.6397 11.1756Z" fill="#C4C4C4"/>
</svg>
