<svg width="31" height="31" viewBox="0 0 31 31" fill="none" xmlns="http://www.w3.org/2000/svg">
<path d="M14.1322 24.5386H17.117V21.5537H14.1322V24.5386ZM15.6246 0.659546C7.38633 0.659546 0.700195 7.34568 0.700195 15.5839C0.700195 23.8222 7.38633 30.5083 15.6246 30.5083C23.8629 30.5083 30.549 23.8222 30.549 15.5839C30.549 7.34568 23.8629 0.659546 15.6246 0.659546ZM15.6246 27.5235C9.04294 27.5235 3.68508 22.1656 3.68508 15.5839C3.68508 9.00229 9.04294 3.64443 15.6246 3.64443C22.2063 3.64443 27.5641 9.00229 27.5641 15.5839C27.5641 22.1656 22.2063 27.5235 15.6246 27.5235ZM15.6246 6.62931C12.3263 6.62931 9.65483 9.30077 9.65483 12.5991H12.6397C12.6397 10.9574 13.9829 9.61419 15.6246 9.61419C17.2663 9.61419 18.6095 10.9574 18.6095 12.5991C18.6095 15.5839 14.1322 15.2108 14.1322 20.0613H17.117C17.117 16.7033 21.5944 16.3302 21.5944 12.5991C21.5944 9.30077 18.9229 6.62931 15.6246 6.62931Z" fill="#C4C4C4"/>
</svg>
