<svg width="25" height="30" viewBox="0 0 25 30" fill="none" xmlns="http://www.w3.org/2000/svg">
<path d="M12.6241 29.2842C14.2658 29.2842 15.609 27.941 15.609 26.2993H9.63921C9.63921 27.941 10.9824 29.2842 12.6241 29.2842ZM21.5787 20.3296V12.8674C21.5787 8.28559 19.1461 4.45002 14.8628 3.43516V2.4203C14.8628 1.18158 13.8628 0.181641 12.6241 0.181641C11.3854 0.181641 10.3854 1.18158 10.3854 2.4203V3.43516C6.11705 4.45002 3.66945 8.27067 3.66945 12.8674V20.3296L0.68457 23.3145V24.8069H24.5636V23.3145L21.5787 20.3296ZM18.5938 21.822H6.65433V12.8674C6.65433 9.16613 8.90791 6.1514 12.6241 6.1514C16.3403 6.1514 18.5938 9.16613 18.5938 12.8674V21.822Z" fill="#C4C4C4"/>
</svg>
