<svg width="36" height="32" viewBox="0 0 36 32" fill="none" xmlns="http://www.w3.org/2000/svg">
<path d="M3.66659 0H26.9999C27.884 0 28.7318 0.351189 29.3569 0.976311C29.9821 1.60143 30.3333 2.44928 30.3333 3.33333V15.1333C27.8256 14.712 25.2516 15.2602 23.1333 16.6667H16.9999V23.3333H18.7999C18.6166 24.4667 18.6166 25.5833 18.7999 26.6667H3.66659C2.78253 26.6667 1.93468 26.3155 1.30956 25.6904C0.684441 25.0652 0.333252 24.2174 0.333252 23.3333V3.33333C0.333252 1.5 1.83325 0 3.66659 0ZM3.66659 6.66667V13.3333H13.6666V6.66667H3.66659ZM16.9999 6.66667V13.3333H26.9999V6.66667H16.9999ZM3.66659 16.6667V23.3333H13.6666V16.6667H3.66659ZM35.3333 31.6667V30C35.3333 27.7833 30.8833 26.6667 28.6666 26.6667C26.4499 26.6667 21.9999 27.7833 21.9999 30V31.6667H35.3333ZM28.6666 18.3333C26.8333 18.3333 25.3333 19.8333 25.3333 21.6667C25.3333 23.5 26.8333 25 28.6666 25C30.4999 25 31.9999 23.5167 31.9999 21.6667C31.9999 19.8167 30.5166 18.3333 28.6666 18.3333Z" fill="#69ADA7"/>
</svg>
