<svg width="37" height="37" viewBox="0 0 37 37" fill="none" xmlns="http://www.w3.org/2000/svg">
<path d="M18.6238 23.1843C21.0966 23.1843 23.1011 21.1797 23.1011 18.7069C23.1011 16.2342 21.0966 14.2296 18.6238 14.2296C16.151 14.2296 14.1465 16.2342 14.1465 18.7069C14.1465 21.1797 16.151 23.1843 18.6238 23.1843Z" stroke="#C4C4C4" stroke-width="4.16667" stroke-linecap="round" stroke-linejoin="round"/>
<path d="M29.6679 23.1843C29.4693 23.6345 29.41 24.1338 29.4978 24.6179C29.5856 25.1021 29.8164 25.5488 30.1604 25.9006L30.25 25.9901C30.5275 26.2673 30.7477 26.5965 30.8979 26.9589C31.0481 27.3212 31.1254 27.7097 31.1254 28.1019C31.1254 28.4942 31.0481 28.8826 30.8979 29.2449C30.7477 29.6073 30.5275 29.9365 30.25 30.2137C29.9728 30.4912 29.6436 30.7114 29.2812 30.8616C28.9189 31.0118 28.5304 31.0891 28.1382 31.0891C27.7459 31.0891 27.3575 31.0118 26.9951 30.8616C26.6328 30.7114 26.3036 30.4912 26.0264 30.2137L25.9368 30.1242C25.5851 29.7801 25.1383 29.5493 24.6542 29.4615C24.1701 29.3737 23.6707 29.433 23.2206 29.6317C22.7792 29.8208 22.4027 30.135 22.1375 30.5354C21.8724 30.9358 21.7301 31.405 21.7281 31.8852V32.139C21.7281 32.9306 21.4137 33.6898 20.8539 34.2496C20.2941 34.8094 19.5349 35.1238 18.7433 35.1238C17.9516 35.1238 17.1924 34.8094 16.6326 34.2496C16.0729 33.6898 15.7584 32.9306 15.7584 32.139V32.0046C15.7468 31.5107 15.5869 31.0316 15.2995 30.6297C15.012 30.2278 14.6103 29.9216 14.1466 29.7511C13.6964 29.5524 13.1971 29.4931 12.7129 29.5809C12.2288 29.6687 11.782 29.8995 11.4303 30.2436L11.3408 30.3331C11.0635 30.6106 10.7344 30.8308 10.372 30.981C10.0096 31.1312 9.62122 31.2085 9.22896 31.2085C8.8367 31.2085 8.44829 31.1312 8.08593 30.981C7.72357 30.8308 7.39437 30.6106 7.11716 30.3331C6.83964 30.0559 6.61947 29.7267 6.46926 29.3643C6.31905 29.002 6.24173 28.6136 6.24173 28.2213C6.24173 27.829 6.31905 27.4406 6.46926 27.0783C6.61947 26.7159 6.83964 26.3867 7.11716 26.1095L7.20671 26.02C7.55077 25.6682 7.78157 25.2215 7.86936 24.7373C7.95714 24.2532 7.89788 23.7539 7.69921 23.3037C7.51002 22.8623 7.19589 22.4858 6.79549 22.2207C6.39508 21.9555 5.92587 21.8132 5.44563 21.8113H5.19191C4.40027 21.8113 3.64106 21.4968 3.08128 20.937C2.52151 20.3773 2.20703 19.618 2.20703 18.8264C2.20703 18.0348 2.52151 17.2755 3.08128 16.7158C3.64106 16.156 4.40027 15.8415 5.19191 15.8415H5.32623C5.82022 15.83 6.29931 15.6701 6.70121 15.3826C7.10312 15.0952 7.40925 14.6934 7.57982 14.2297C7.77848 13.7795 7.83774 13.2802 7.74996 12.7961C7.66218 12.3119 7.43137 11.8652 7.08731 11.5134L6.99776 11.4239C6.72024 11.1467 6.50008 10.8175 6.34987 10.4551C6.19965 10.0928 6.12234 9.70435 6.12234 9.31209C6.12234 8.91983 6.19965 8.53142 6.34987 8.16906C6.50008 7.8067 6.72024 7.4775 6.99776 7.20029C7.27498 6.92277 7.60418 6.7026 7.96654 6.55239C8.32889 6.40218 8.71731 6.32486 9.10957 6.32486C9.50183 6.32486 9.89024 6.40218 10.2526 6.55239C10.615 6.7026 10.9442 6.92277 11.2214 7.20029L11.3109 7.28983C11.6627 7.6339 12.1094 7.8647 12.5935 7.95249C13.0777 8.04027 13.577 7.98101 14.0272 7.78234H14.1466C14.588 7.59315 14.9644 7.27902 15.2296 6.87862C15.4948 6.47821 15.6371 6.009 15.639 5.52876V5.27504C15.639 4.4834 15.9535 3.72419 16.5132 3.16441C17.073 2.60464 17.8322 2.29016 18.6239 2.29016C19.4155 2.29016 20.1747 2.60464 20.7345 3.16441C21.2943 3.72419 21.6088 4.4834 21.6088 5.27504V5.40936C21.6107 5.88961 21.753 6.35881 22.0181 6.75922C22.2833 7.15963 22.6598 7.47376 23.1012 7.66294C23.5513 7.86161 24.0507 7.92087 24.5348 7.83309C25.019 7.74531 25.4657 7.5145 25.8174 7.17044L25.907 7.08089C26.1842 6.80337 26.5134 6.58321 26.8758 6.433C27.2381 6.28278 27.6265 6.20547 28.0188 6.20547C28.411 6.20547 28.7995 6.28278 29.1618 6.433C29.5242 6.58321 29.8534 6.80337 30.1306 7.08089C30.4081 7.35811 30.6283 7.68731 30.7785 8.04967C30.9287 8.41202 31.006 8.80044 31.006 9.1927C31.006 9.58496 30.9287 9.97337 30.7785 10.3357C30.6283 10.6981 30.4081 11.0273 30.1306 11.3045L30.041 11.394C29.697 11.7458 29.4662 12.1925 29.3784 12.6767C29.2906 13.1608 29.3499 13.6601 29.5485 14.1103V14.2297C29.7377 14.6711 30.0519 15.0476 30.4523 15.3127C30.8527 15.5779 31.3219 15.7202 31.8021 15.7221H32.0558C32.8475 15.7221 33.6067 16.0366 34.1665 16.5964C34.7262 17.1561 35.0407 17.9154 35.0407 18.707C35.0407 19.4986 34.7262 20.2579 34.1665 20.8176C33.6067 21.3774 32.8475 21.6919 32.0558 21.6919H31.9215C31.4413 21.6938 30.9721 21.8361 30.5717 22.1013C30.1712 22.3664 29.8571 22.7429 29.6679 23.1843V23.1843Z" stroke="#C4C4C4" stroke-width="4.16667" stroke-linecap="round" stroke-linejoin="round"/>
</svg>
