<svg width="31" height="29" viewBox="0 0 31 29" fill="none" xmlns="http://www.w3.org/2000/svg">
<path d="M6.15656 27.7826C5.94227 27.969 5.67928 28.0903 5.39845 28.1324C5.11762 28.1745 4.83061 28.1356 4.57112 28.0202C4.31163 27.9049 4.09042 27.718 3.93348 27.4813C3.77653 27.2446 3.69036 26.9681 3.68508 26.6842V23.3367C2.89344 23.3367 2.13422 23.0222 1.57445 22.4624C1.01467 21.9026 0.700195 21.1434 0.700195 20.3518V9.90471C0.700195 9.11307 1.01467 8.35386 1.57445 7.79408C2.13422 7.23431 2.89344 6.91983 3.68508 6.91983H20.1019C20.8936 6.91983 21.6528 7.23431 22.2125 7.79408C22.7723 8.35386 23.0868 9.11307 23.0868 9.90471V20.3518C23.0868 21.1434 22.7723 21.9026 22.2125 22.4624C21.6528 23.0222 20.8936 23.3367 20.1019 23.3367H12.6442L6.15656 27.7826ZM7.41618 23.1665C7.55217 23.1657 7.68572 23.1303 7.80421 23.0636L11.3189 20.6189C11.569 20.445 11.8664 20.3518 12.1711 20.3518H18.6095C19.0053 20.3518 19.3849 20.1946 19.6648 19.9147C19.9447 19.6348 20.1019 19.2552 20.1019 18.8594V11.3972C20.1019 11.0013 19.9447 10.6217 19.6648 10.3418C19.3849 10.062 19.0053 9.90471 18.6095 9.90471H5.17752C4.7817 9.90471 4.40209 10.062 4.1222 10.3418C3.84231 10.6217 3.68508 11.0013 3.68508 11.3972V18.8594C3.68508 19.6653 4.32533 20.3249 5.17752 20.3518C5.78942 20.3757 6.23267 20.4757 6.43713 20.6891C6.62817 20.8891 6.63861 21.2264 6.66996 21.8681C6.67443 21.9621 6.67443 22.1323 6.66996 22.4203C6.66996 22.6182 6.74857 22.808 6.88852 22.948C7.02846 23.0879 7.21827 23.1665 7.41618 23.1665ZM24.5792 15.8984C24.5745 16.0824 24.5745 16.2665 24.5792 16.4506V15.8984C24.6091 15.2566 24.621 14.9193 24.8121 14.7193C25.0165 14.5059 25.4598 14.4059 26.0717 14.382C26.9239 14.3552 27.5641 13.6955 27.5641 12.8896V5.42739C27.5641 5.03157 27.4069 4.65197 27.127 4.37208C26.8471 4.09219 26.4675 3.93495 26.0717 3.93495H12.6397C12.2439 3.93495 11.8643 4.09219 11.5844 4.37208C11.3045 4.65197 11.1473 5.03157 11.1473 5.42739H8.1624V3.93495C8.1624 3.14331 8.47687 2.3841 9.03665 1.82432C9.59642 1.26455 10.3556 0.950073 11.1473 0.950073H27.5641C28.3558 0.950073 29.115 1.26455 29.6747 1.82432C30.2345 2.3841 30.549 3.14331 30.549 3.93495V14.382C30.549 15.1737 30.2345 15.9329 29.6747 16.4927C29.115 17.0524 28.3558 17.3669 27.5641 17.3669V20.7145C27.5588 20.9984 27.4727 21.2749 27.3157 21.5115C27.1588 21.7482 26.9376 21.9352 26.6781 22.0505C26.4186 22.1658 26.1316 22.2047 25.8507 22.1626C25.5699 22.1206 25.3069 21.9992 25.0926 21.8129L24.5792 21.4607V15.8998V15.8984Z" fill="#C4C4C4"/>
</svg>
