<svg width="37" height="36" viewBox="0 0 37 36" fill="none" xmlns="http://www.w3.org/2000/svg">
<path d="M19.2215 0.000573747C9.09872 -0.136144 0.834675 8.1275 0.971399 18.2498C1.10639 27.9577 9.01132 35.8622 18.7196 35.9972C28.8442 36.1356 37.1065 27.872 36.968 17.7497C36.8347 8.04011 28.9298 0.135561 19.2215 0.000573747ZM30.1612 28.3176C30.1267 28.3549 30.0845 28.3841 30.0375 28.4033C29.9904 28.4224 29.9398 28.4309 29.8891 28.4283C29.8384 28.4256 29.7889 28.4119 29.7441 28.388C29.6993 28.3641 29.6603 28.3306 29.6299 28.2899C28.8559 27.2773 27.908 26.4103 26.8305 25.7295C24.6273 24.3156 21.8357 23.5368 18.9706 23.5368C16.1054 23.5368 13.3138 24.3156 11.1106 25.7295C10.0332 26.41 9.0853 27.2767 8.31125 28.2891C8.28085 28.3297 8.24186 28.3632 8.19707 28.3871C8.15228 28.411 8.10278 28.4248 8.05208 28.4274C8.00138 28.4301 7.95071 28.4215 7.90368 28.4024C7.85665 28.3833 7.8144 28.354 7.77993 28.3168C5.24073 25.5758 3.80237 21.9942 3.7405 18.2585C3.59945 9.83821 10.5092 2.79031 18.9334 2.76954C27.3575 2.74878 34.2006 9.589 34.2006 17.9989C34.2035 21.8247 32.7607 25.5104 30.1612 28.3176Z" fill="#C4C4C4"/>
<path d="M19.916 7.57788C18.2675 7.57788 16.777 8.25854 15.7178 9.49551C14.6587 10.7325 14.1295 12.4429 14.249 14.2785C14.4915 17.8937 17.0336 20.841 19.916 20.841C22.7985 20.841 25.3356 17.8937 25.5831 14.2795C25.7068 12.4613 25.1818 10.7666 24.1051 9.50657C23.0417 8.26314 21.5537 7.57788 19.916 7.57788Z" fill="#C4C4C4"/>
</svg>
