<svg width="50" height="50" viewBox="0 0 50 50" fill="none" xmlns="http://www.w3.org/2000/svg">
<path d="M35.4163 4.16669H14.583C12.9254 4.16669 11.3357 4.82517 10.1636 5.99727C8.99149 7.16937 8.33301 8.75908 8.33301 10.4167V39.5834C8.33301 41.241 8.99149 42.8307 10.1636 44.0028C11.3357 45.1749 12.9254 45.8334 14.583 45.8334H35.4163C37.0739 45.8334 38.6637 45.1749 39.8358 44.0028C41.0079 42.8307 41.6663 41.241 41.6663 39.5834V10.4167C41.6663 8.75908 41.0079 7.16937 39.8358 5.99727C38.6637 4.82517 37.0739 4.16669 35.4163 4.16669ZM37.4997 39.5834C37.4997 40.1359 37.2802 40.6658 36.8895 41.0565C36.4988 41.4472 35.9689 41.6667 35.4163 41.6667H14.583C14.0305 41.6667 13.5006 41.4472 13.1099 41.0565C12.7192 40.6658 12.4997 40.1359 12.4997 39.5834V10.4167C12.4997 9.86415 12.7192 9.33425 13.1099 8.94355C13.5006 8.55285 14.0305 8.33335 14.583 8.33335H35.4163C35.9689 8.33335 36.4988 8.55285 36.8895 8.94355C37.2802 9.33425 37.4997 9.86415 37.4997 10.4167V39.5834Z" fill="white"/>
<path d="M25 37.5C26.7259 37.5 28.125 36.1009 28.125 34.375C28.125 32.6491 26.7259 31.25 25 31.25C23.2741 31.25 21.875 32.6491 21.875 34.375C21.875 36.1009 23.2741 37.5 25 37.5Z" fill="white"/>
<path d="M30.208 12.5H19.7913C19.2388 12.5 18.7089 12.7195 18.3182 13.1102C17.9275 13.5009 17.708 14.0308 17.708 14.5833C17.708 15.1359 17.9275 15.6658 18.3182 16.0565C18.7089 16.4472 19.2388 16.6667 19.7913 16.6667H30.208C30.7605 16.6667 31.2904 16.4472 31.6811 16.0565C32.0718 15.6658 32.2913 15.1359 32.2913 14.5833C32.2913 14.0308 32.0718 13.5009 31.6811 13.1102C31.2904 12.7195 30.7605 12.5 30.208 12.5Z" fill="white"/>
</svg>
