<svg width="26" height="18" viewBox="0 0 26 18" fill="none" xmlns="http://www.w3.org/2000/svg">
<g clip-path="url(#clip0_18_1236)">
<path d="M13.7087 1.95886L15.792 4.0422C16.1939 4.45243 16.4658 4.9722 16.5736 5.53633C16.6813 6.10047 16.6201 6.68385 16.3976 7.21333C16.1751 7.74281 15.8012 8.19482 15.3229 8.51268C14.8445 8.83054 14.283 9.0001 13.7087 9.0001C13.1343 9.0001 12.5728 8.83054 12.0944 8.51268C11.6161 8.19482 11.2422 7.74281 11.0197 7.21333C10.7973 6.68385 10.736 6.10047 10.8438 5.53633C10.9515 4.9722 11.2234 4.45243 11.6253 4.0422L13.7087 1.95886Z" stroke="#3C4858" stroke-width="1.83333" stroke-linecap="round" stroke-linejoin="round"/>
</g>
<g clip-path="url(#clip1_18_1236)">
<path d="M20.7087 8.95886L22.792 11.0422C23.1939 11.4524 23.4658 11.9722 23.5736 12.5363C23.6813 13.1005 23.6201 13.6839 23.3976 14.2133C23.1751 14.7428 22.8012 15.1948 22.3229 15.5127C21.8445 15.8305 21.283 16.0001 20.7087 16.0001C20.1343 16.0001 19.5728 15.8305 19.0944 15.5127C18.6161 15.1948 18.2422 14.7428 18.0197 14.2133C17.7973 13.6839 17.736 13.1005 17.8438 12.5363C17.9515 11.9722 18.2234 11.4524 18.6253 11.0422L20.7087 8.95886Z" stroke="#3C4858" stroke-width="1.83333" stroke-linecap="round" stroke-linejoin="round"/>
</g>
<g clip-path="url(#clip2_18_1236)">
<path d="M5.70866 8.95886L7.79199 11.0422C8.19394 11.4524 8.46582 11.9722 8.57356 12.5363C8.68129 13.1005 8.62007 13.6839 8.39758 14.2133C8.17509 14.7428 7.80123 15.1948 7.32288 15.5127C6.84453 15.8305 6.28299 16.0001 5.70866 16.0001C5.13433 16.0001 4.57279 15.8305 4.09444 15.5127C3.61609 15.1948 3.24223 14.7428 3.01974 14.2133C2.79725 13.6839 2.73603 13.1005 2.84377 12.5363C2.9515 11.9722 3.22338 11.4524 3.62533 11.0422L5.70866 8.95886Z" stroke="#3C4858" stroke-width="1.83333" stroke-linecap="round" stroke-linejoin="round"/>
</g>
<defs>
<clipPath id="clip0_18_1236">
<rect width="10" height="10" fill="white" transform="translate(8.70898 0.708862)"/>
</clipPath>
<clipPath id="clip1_18_1236">
<rect width="10" height="10" fill="white" transform="translate(15.709 7.70886)"/>
</clipPath>
<clipPath id="clip2_18_1236">
<rect width="10" height="10" fill="white" transform="translate(0.708984 7.70886)"/>
</clipPath>
</defs>
</svg>
