<svg width="36" height="36" viewBox="0 0 36 36" fill="none" xmlns="http://www.w3.org/2000/svg">
<path d="M18.2518 0.00167238C8.12899 -0.135046 -0.135052 8.1286 0.00167246 18.2509C0.136666 27.9588 8.04159 35.8633 17.7499 35.9983C27.8744 36.1367 36.1367 27.8731 35.9983 17.7508C35.865 8.0412 27.9601 0.13666 18.2518 0.00167238ZM29.1915 28.3187C29.157 28.356 29.1148 28.3852 29.0677 28.4044C29.0207 28.4235 28.97 28.432 28.9193 28.4294C28.8686 28.4267 28.8191 28.413 28.7743 28.3891C28.7295 28.3652 28.6906 28.3317 28.6602 28.291C27.8862 27.2784 26.9383 26.4114 25.8608 25.7306C23.6576 24.3167 20.866 23.5379 18.0008 23.5379C15.1357 23.5379 12.3441 24.3167 10.1409 25.7306C9.06345 26.4111 8.11557 27.2778 7.34153 28.2902C7.31112 28.3308 7.27214 28.3643 7.22735 28.3882C7.18256 28.4121 7.13306 28.4259 7.08235 28.4285C7.03165 28.4312 6.98099 28.4226 6.93396 28.4035C6.88692 28.3844 6.84468 28.3551 6.8102 28.3179C4.271 25.5769 2.83264 21.9953 2.77078 18.2596C2.62972 9.8393 9.5395 2.79141 17.9636 2.77064C26.3878 2.74988 33.2309 9.5901 33.2309 18C33.2338 21.8258 31.791 25.5115 29.1915 28.3187Z" fill="white"/>
<path d="M18.9468 7.57898C17.2983 7.57898 15.8078 8.25964 14.7486 9.49661C13.6894 10.7336 13.1603 12.444 13.2798 14.2796C13.5222 17.8948 16.0644 20.8421 18.9468 20.8421C21.8292 20.8421 24.3664 17.8948 24.6138 14.2806C24.7375 12.4624 24.2126 10.7677 23.1358 9.50766C22.0725 8.26424 20.5845 7.57898 18.9468 7.57898Z" fill="white"/>
</svg>