<svg width="18" height="20" viewBox="0 0 18 20" fill="none" xmlns="http://www.w3.org/2000/svg">
<path d="M2.91667 11.0625C2.18587 11.4844 1.61472 12.1357 1.2918 12.9153C0.96887 13.6949 0.912215 14.5593 1.13062 15.3744C1.34902 16.1895 1.83028 16.9097 2.49975 17.4235C3.16922 17.9372 3.98949 18.2156 4.83334 18.2156C5.67718 18.2156 6.49745 17.9372 7.16692 17.4235C7.83639 16.9097 8.31765 16.1895 8.53605 15.3744C8.75446 14.5593 8.6978 13.6949 8.37487 12.9153C8.05195 12.1357 7.4808 11.4844 6.75 11.0625V2.91667C6.75 2.40834 6.54807 1.92082 6.18862 1.56138C5.82918 1.20193 5.34167 1 4.83334 1C4.325 1 3.83749 1.20193 3.47805 1.56138C3.1186 1.92082 2.91667 2.40834 2.91667 2.91667V11.0625Z" stroke="#3C4858" stroke-width="2" stroke-linecap="round" stroke-linejoin="round"/>
<path d="M2.91663 6.75H6.74996" stroke="#3C4858" stroke-width="2" stroke-linecap="round" stroke-linejoin="round"/>
<path d="M10.5834 6.75H16.3334" stroke="#3C4858" stroke-width="2" stroke-linecap="round" stroke-linejoin="round"/>
<path d="M13.4584 3.875V9.625" stroke="#3C4858" stroke-width="2" stroke-linecap="round" stroke-linejoin="round"/>
</svg>
