<svg width="24" height="24" viewBox="0 0 24 24" fill="none" xmlns="http://www.w3.org/2000/svg">
<g clip-path="url(#clip0_1002_61)">
<path d="M12 6.375C13.45 6.375 14.625 7.55 14.625 9C14.625 10.45 13.45 11.625 12 11.625C10.55 11.625 9.375 10.45 9.375 9C9.375 7.55 10.55 6.375 12 6.375ZM12 17.625C15.7125 17.625 19.625 19.45 19.625 20.25V21.625H4.375V20.25C4.375 19.45 8.2875 17.625 12 17.625ZM12 4C9.2375 4 7 6.2375 7 9C7 11.7625 9.2375 14 12 14C14.7625 14 17 11.7625 17 9C17 6.2375 14.7625 4 12 4ZM12 15.25C8.6625 15.25 2 16.925 2 20.25V24H22V20.25C22 16.925 15.3375 15.25 12 15.25Z" fill="#434343"/>
</g>
<defs>
<clipPath id="clip0_1002_61">
<rect width="24" height="24" fill="white"/>
</clipPath>
</defs>
</svg>
