<svg width="40" height="44" viewBox="0 0 40 44" fill="none" xmlns="http://www.w3.org/2000/svg">
<path fill-rule="evenodd" clip-rule="evenodd" d="M39.4267 0.970249C39.6037 1.09303 39.7483 1.25687 39.8481 1.44774C39.948 1.63862 40.0001 1.85084 40 2.06625V42.0663C40 42.4199 39.8595 42.759 39.6095 43.0091C39.3594 43.2591 39.0203 43.3996 38.6667 43.3996H30.6667C30.313 43.3996 29.9739 43.2591 29.7239 43.0091C29.4738 42.759 29.3333 42.4199 29.3333 42.0663V38.0663H26.6667V42.0663C26.6667 42.4199 26.5262 42.759 26.2761 43.0091C26.0261 43.2591 25.687 43.3996 25.3333 43.3996H1.33333C0.979711 43.3996 0.640573 43.2591 0.390524 43.0091C0.140476 42.759 0 42.4199 0 42.0663V26.0663C0.000145292 25.7506 0.112241 25.4453 0.316346 25.2046C0.520451 24.9639 0.803332 24.8033 1.11467 24.7516L16 22.2716V10.0662C16 9.79504 16.0827 9.53029 16.2371 9.3073C16.3915 9.08432 16.6102 8.91371 16.864 8.81825L38.1973 0.818249C38.3989 0.74269 38.6157 0.717049 38.8293 0.743519C39.043 0.769988 39.247 0.847781 39.424 0.970249H39.4267ZM18.6667 10.9889V23.3996C18.6665 23.7152 18.5544 24.0205 18.3503 24.2612C18.1462 24.502 17.8633 24.6625 17.552 24.7143L2.66667 27.1943V40.7329H24V36.7329C24 36.3793 24.1405 36.0402 24.3905 35.7901C24.6406 35.5401 24.9797 35.3996 25.3333 35.3996H30.6667C31.0203 35.3996 31.3594 35.5401 31.6095 35.7901C31.8595 36.0402 32 36.3793 32 36.7329V40.7329H37.3333V3.99158L18.6667 10.9889Z" fill="white"/>
<path fill-rule="evenodd" clip-rule="evenodd" d="M16 42.0664V23.3997H18.6667V42.0664H16Z" fill="white"/>
<path d="M5.33325 30.0663H7.99992V32.733H5.33325V30.0663ZM10.6666 30.0663H13.3333V32.733H10.6666V30.0663ZM5.33325 35.3996H7.99992V38.0663H5.33325V35.3996ZM10.6666 35.3996H13.3333V38.0663H10.6666V35.3996ZM26.6666 8.73297H29.3333V11.3996H26.6666V8.73297ZM31.9999 8.73297H34.6666V11.3996H31.9999V8.73297ZM21.3333 14.0663H23.9999V16.733H21.3333V14.0663ZM26.6666 14.0663H29.3333V16.733H26.6666V14.0663ZM31.9999 14.0663H34.6666V16.733H31.9999V14.0663ZM26.6666 19.3996H29.3333V22.0663H26.6666V19.3996ZM31.9999 19.3996H34.6666V22.0663H31.9999V19.3996ZM21.3333 19.3996H23.9999V22.0663H21.3333V19.3996ZM21.3333 24.733H23.9999V27.3996H21.3333V24.733ZM26.6666 24.733H29.3333V27.3996H26.6666V24.733ZM31.9999 24.733H34.6666V27.3996H31.9999V24.733ZM21.3333 30.0663H23.9999V32.733H21.3333V30.0663ZM26.6666 30.0663H29.3333V32.733H26.6666V30.0663ZM31.9999 30.0663H34.6666V32.733H31.9999V30.0663Z" fill="white"/>
</svg>
