<svg width="28" height="35" viewBox="0 0 28 35" fill="none" xmlns="http://www.w3.org/2000/svg">
<path d="M21 28H7V24.5H21V28ZM21 17.5H7V21H21V17.5ZM24.5 1.75H21V5.25H24.5V31.5H3.5V5.25H7V1.75H3.5C2.57174 1.75 1.6815 2.11875 1.02513 2.77513C0.368749 3.4315 0 4.32174 0 5.25V31.5C0 32.4283 0.368749 33.3185 1.02513 33.9749C1.6815 34.6312 2.57174 35 3.5 35H24.5C25.4283 35 26.3185 34.6312 26.9749 33.9749C27.6313 33.3185 28 32.4283 28 31.5V5.25C28 4.32174 27.6313 3.4315 26.9749 2.77513C26.3185 2.11875 25.4283 1.75 24.5 1.75ZM17.5 5.25V3.5C17.5 2.57174 17.1313 1.6815 16.4749 1.02513C15.8185 0.368749 14.9283 0 14 0C13.0717 0 12.1815 0.368749 11.5251 1.02513C10.8687 1.6815 10.5 2.57174 10.5 3.5V5.25C9.57174 5.25 8.6815 5.61875 8.02513 6.27513C7.36875 6.9315 7 7.82174 7 8.75V10.5H21V8.75C21 7.82174 20.6313 6.9315 19.9749 6.27513C19.3185 5.61875 18.4283 5.25 17.5 5.25Z" fill="white"/>
</svg>
