<svg width="34" height="42" viewBox="0 0 34 42" fill="none" xmlns="http://www.w3.org/2000/svg">
<path d="M27.0833 0H6.25C4.5924 0 3.00268 0.658481 1.83058 1.83058C0.65848 3.00269 0 4.5924 0 6.25V35.4167C0 37.0743 0.65848 38.664 1.83058 39.8361C3.00268 41.0082 4.5924 41.6667 6.25 41.6667H27.0833C28.7409 41.6667 30.3306 41.0082 31.5027 39.8361C32.6748 38.664 33.3333 37.0743 33.3333 35.4167V6.25C33.3333 4.5924 32.6748 3.00269 31.5027 1.83058C30.3306 0.658481 28.7409 0 27.0833 0ZM29.1667 35.4167C29.1667 35.9692 28.9472 36.4991 28.5565 36.8898C28.1658 37.2805 27.6359 37.5 27.0833 37.5H6.25C5.69746 37.5 5.16756 37.2805 4.77686 36.8898C4.38616 36.4991 4.16667 35.9692 4.16667 35.4167V6.25C4.16667 5.69747 4.38616 5.16756 4.77686 4.77686C5.16756 4.38616 5.69746 4.16667 6.25 4.16667H27.0833C27.6359 4.16667 28.1658 4.38616 28.5565 4.77686C28.9472 5.16756 29.1667 5.69747 29.1667 6.25V35.4167Z" fill="#69ADA7"/>
<path d="M16.6665 33.3334C18.3924 33.3334 19.7915 31.9343 19.7915 30.2084C19.7915 28.4825 18.3924 27.0834 16.6665 27.0834C14.9406 27.0834 13.5415 28.4825 13.5415 30.2084C13.5415 31.9343 14.9406 33.3334 16.6665 33.3334Z" fill="#69ADA7"/>
<path d="M21.875 8.33337H11.4583C10.9058 8.33337 10.3759 8.55287 9.98519 8.94357C9.59449 9.33427 9.375 9.86417 9.375 10.4167C9.375 10.9692 9.59449 11.4991 9.98519 11.8898C10.3759 12.2805 10.9058 12.5 11.4583 12.5H21.875C22.4275 12.5 22.9574 12.2805 23.3481 11.8898C23.7388 11.4991 23.9583 10.9692 23.9583 10.4167C23.9583 9.86417 23.7388 9.33427 23.3481 8.94357C22.9574 8.55287 22.4275 8.33337 21.875 8.33337Z" fill="#69ADA7"/>
</svg>
