<svg width="57" height="58" viewBox="0 0 57 58" fill="none" xmlns="http://www.w3.org/2000/svg">
<g clip-path="url(#clip0_303_1066)">
<path d="M30.875 14.6899C33.9744 14.6899 36.4859 17.221 36.4859 20.3444C36.4859 23.4679 33.9744 25.999 30.875 25.999C27.7756 25.999 25.2641 23.4679 25.2641 20.3444C25.2641 17.221 27.7756 14.6899 30.875 14.6899ZM30.875 38.9236C38.8105 38.9236 47.1734 42.8549 47.1734 44.5782V47.5401H14.5766V44.5782C14.5766 42.8549 22.9395 38.9236 30.875 38.9236ZM30.875 9.57385C24.9702 9.57385 20.1875 14.3937 20.1875 20.3444C20.1875 26.2952 24.9702 31.115 30.875 31.115C36.7798 31.115 41.5625 26.2952 41.5625 20.3444C41.5625 14.3937 36.7798 9.57385 30.875 9.57385ZM30.875 33.8076C23.7411 33.8076 9.5 37.4158 9.5 44.5782V52.6561H52.25V44.5782C52.25 37.4158 38.0089 33.8076 30.875 33.8076Z" fill="#69ADA7"/>
</g>
<defs>
<clipPath id="clip0_303_1066">
<rect width="57" height="57.443" fill="white"/>
</clipPath>
</defs>
</svg>
