<svg width="37" height="37" viewBox="0 0 37 37" fill="none" xmlns="http://www.w3.org/2000/svg">
<path d="M17.1624 27.5397H20.1472V24.5548H17.1624V27.5397ZM18.6548 3.66064C10.4165 3.66064 3.73041 10.3468 3.73041 18.585C3.73041 26.8233 10.4165 33.5094 18.6548 33.5094C26.8931 33.5094 33.5792 26.8233 33.5792 18.585C33.5792 10.3468 26.8931 3.66064 18.6548 3.66064ZM18.6548 30.5246C12.0731 30.5246 6.71529 25.1667 6.71529 18.585C6.71529 12.0034 12.0731 6.64552 18.6548 6.64552C25.2365 6.64552 30.5943 12.0034 30.5943 18.585C30.5943 25.1667 25.2365 30.5246 18.6548 30.5246ZM18.6548 9.6304C15.3565 9.6304 12.685 12.3019 12.685 15.6002H15.6699C15.6699 13.9585 17.0131 12.6153 18.6548 12.6153C20.2965 12.6153 21.6397 13.9585 21.6397 15.6002C21.6397 18.585 17.1624 18.2119 17.1624 23.0624H20.1472C20.1472 19.7044 24.6246 19.3313 24.6246 15.6002C24.6246 12.3019 21.9531 9.6304 18.6548 9.6304Z" fill="#C4C4C4"/>
</svg>
