<svg width="31" height="37" viewBox="0 0 31 37" fill="none" xmlns="http://www.w3.org/2000/svg">
<path d="M20.2002 4.37624V3.67666C20.2002 2.83716 19.9087 2.12592 19.3258 1.54293C18.7428 0.959949 18.0315 0.668457 17.192 0.668457H14.2538C13.4143 0.668457 12.7031 0.959949 12.1201 1.54293C11.5371 2.12592 11.2456 2.83716 11.2456 3.67666V4.37624C8.16744 5.30901 5.66061 7.08129 3.7251 9.69306C1.78959 12.3048 0.821838 15.2664 0.821838 18.5777V32.0097C0.821838 33.2689 1.24159 34.33 2.08108 35.1928C2.92058 36.0556 3.99327 36.487 5.29916 36.487H26.1467C27.4526 36.487 28.5253 36.0556 29.3648 35.1928C30.2043 34.33 30.624 33.2689 30.624 32.0097V18.5777C30.624 15.2664 29.6562 12.3048 27.7207 9.69306C25.7852 7.08129 23.2784 5.30901 20.2002 4.37624ZM27.6858 32.0097C27.6858 32.9891 27.1727 33.4788 26.1467 33.4788H5.29916C4.27311 33.4788 3.76008 32.9891 3.76008 32.0097V18.5777C3.76008 15.313 4.93771 12.503 7.29297 10.1478C9.64822 7.79253 12.4582 6.6149 15.7229 6.6149C18.9876 6.6149 21.7976 7.79253 24.1529 10.1478C26.5081 12.503 27.6858 15.313 27.6858 18.5777V32.0097ZM21.6694 18.5777H9.77648C8.93698 18.5777 8.22574 18.8692 7.64276 19.4522C7.05977 20.0352 6.76828 20.7464 6.76828 21.5859V29.0015C6.76828 29.841 7.05977 30.5522 7.64276 31.1352C8.22574 31.7182 8.93698 32.0097 9.77648 32.0097H21.6694C22.5089 32.0097 23.2201 31.7182 23.8031 31.1352C24.3861 30.5522 24.6776 29.841 24.6776 29.0015V21.5859C24.6776 20.7464 24.3861 20.0352 23.8031 19.4522C23.2201 18.8692 22.5089 18.5777 21.6694 18.5777ZM21.6694 29.0015H9.77648V26.0633H21.6694V29.0015ZM21.6694 23.0551H9.77648V21.5859H21.6694V23.0551ZM14.2538 15.5695H17.192V14.1004H18.7311V11.0922H17.192V9.6231H14.2538V11.0922H12.7147V14.1004H14.2538V15.5695Z" fill="#C4C4C4"/>
</svg>
