<svg width="31" height="29" viewBox="0 0 31 29" fill="none" xmlns="http://www.w3.org/2000/svg">
<path d="M6.18683 27.7837C5.97255 27.9701 5.70955 28.0914 5.42872 28.1335C5.14789 28.1756 4.86088 28.1367 4.60139 28.0213C4.3419 27.906 4.1207 27.7191 3.96375 27.4824C3.80681 27.2457 3.72063 26.9692 3.71535 26.6853V23.3378C2.92371 23.3378 2.16449 23.0233 1.60472 22.4635C1.04495 21.9037 0.730469 21.1445 0.730469 20.3529V9.90581C0.730469 9.11417 1.04495 8.35496 1.60472 7.79518C2.16449 7.23541 2.92371 6.92093 3.71535 6.92093H20.1322C20.9238 6.92093 21.683 7.23541 22.2428 7.79518C22.8026 8.35496 23.1171 9.11417 23.1171 9.90581V20.3529C23.1171 21.1445 22.8026 21.9037 22.2428 22.4635C21.683 23.0233 20.9238 23.3378 20.1322 23.3378H12.6745L6.18683 27.7837ZM7.44645 23.1676C7.58244 23.1668 7.716 23.1314 7.83448 23.0647L11.3492 20.62C11.5993 20.4461 11.8967 20.3529 12.2014 20.3529H18.6397C19.0356 20.3529 19.4152 20.1957 19.6951 19.9158C19.9749 19.6359 20.1322 19.2563 20.1322 18.8605V11.3983C20.1322 11.0024 19.9749 10.6228 19.6951 10.3429C19.4152 10.0631 19.0356 9.90581 18.6397 9.90581H5.20779C4.81197 9.90581 4.43236 10.0631 4.15247 10.3429C3.87259 10.6228 3.71535 11.0024 3.71535 11.3983V18.8605C3.71535 19.6664 4.35561 20.326 5.20779 20.3529C5.81969 20.3768 6.26294 20.4768 6.46741 20.6902C6.65844 20.8902 6.66889 21.2275 6.70023 21.8692C6.70471 21.9632 6.70471 22.1334 6.70023 22.4214C6.70023 22.6193 6.77885 22.8091 6.91879 22.9491C7.05873 23.089 7.24854 23.1676 7.44645 23.1676ZM24.6095 15.8994C24.6047 16.0835 24.6047 16.2676 24.6095 16.4517V15.8994C24.6394 15.2577 24.6513 14.9204 24.8423 14.7204C25.0468 14.507 25.49 14.407 26.1019 14.3831C26.9541 14.3563 27.5944 13.6966 27.5944 12.8907V5.42849C27.5944 5.03267 27.4372 4.65306 27.1573 4.37318C26.8774 4.09329 26.4978 3.93605 26.1019 3.93605H12.67C12.2742 3.93605 11.8946 4.09329 11.6147 4.37318C11.3348 4.65306 11.1775 5.03267 11.1775 5.42849H8.19267V3.93605C8.19267 3.14441 8.50715 2.3852 9.06692 1.82542C9.62669 1.26565 10.3859 0.951172 11.1775 0.951172H27.5944C28.386 0.951172 29.1452 1.26565 29.705 1.82542C30.2648 2.3852 30.5793 3.14441 30.5793 3.93605V14.3831C30.5793 15.1748 30.2648 15.934 29.705 16.4938C29.1452 17.0535 28.386 17.368 27.5944 17.368V20.7156C27.5891 20.9995 27.5029 21.276 27.346 21.5126C27.189 21.7493 26.9678 21.9363 26.7083 22.0516C26.4489 22.1669 26.1618 22.2058 25.881 22.1637C25.6002 22.1217 25.3372 22.0003 25.1229 21.814L24.6095 21.4618V15.9009V15.8994Z" fill="#C4C4C4"/>
</svg>
