<svg width="37" height="37" viewBox="0 0 37 37" fill="none" xmlns="http://www.w3.org/2000/svg">
<path d="M18.6549 33.2853C20.2965 33.2853 21.6397 31.9421 21.6397 30.3004H15.67C15.67 31.9421 17.0132 33.2853 18.6549 33.2853ZM27.6095 24.3307V16.8685C27.6095 12.2867 25.1768 8.45112 20.8935 7.43626V6.4214C20.8935 5.18267 19.8936 4.18274 18.6549 4.18274C17.4161 4.18274 16.4162 5.18267 16.4162 6.4214V7.43626C12.1478 8.45112 9.70021 12.2718 9.70021 16.8685V24.3307L6.71533 27.3156V28.808H30.5944V27.3156L27.6095 24.3307ZM24.6246 25.8231H12.6851V16.8685C12.6851 13.1672 14.9387 10.1525 18.6549 10.1525C22.371 10.1525 24.6246 13.1672 24.6246 16.8685V25.8231Z" fill="#C4C4C4"/>
</svg>
