<svg width="25" height="31" viewBox="0 0 25 31" fill="none" xmlns="http://www.w3.org/2000/svg">
<path d="M19.9826 0.761719H5.05819C3.87073 0.761719 2.73191 1.23344 1.89225 2.0731C1.05259 2.91276 0.580872 4.05158 0.580872 5.23904V26.1332C0.580872 27.3207 1.05259 28.4595 1.89225 29.2991C2.73191 30.1388 3.87073 30.6105 5.05819 30.6105H19.9826C21.17 30.6105 22.3089 30.1388 23.1485 29.2991C23.9882 28.4595 24.4599 27.3207 24.4599 26.1332V5.23904C24.4599 4.05158 23.9882 2.91276 23.1485 2.0731C22.3089 1.23344 21.17 0.761719 19.9826 0.761719ZM21.475 26.1332C21.475 26.529 21.3178 26.9086 21.0379 27.1885C20.758 27.4684 20.3784 27.6256 19.9826 27.6256H5.05819C4.66237 27.6256 4.28276 27.4684 4.00288 27.1885C3.72299 26.9086 3.56575 26.529 3.56575 26.1332V5.23904C3.56575 4.84322 3.72299 4.46361 4.00288 4.18372C4.28276 3.90384 4.66237 3.7466 5.05819 3.7466H19.9826C20.3784 3.7466 20.758 3.90384 21.0379 4.18372C21.3178 4.46361 21.475 4.84322 21.475 5.23904V26.1332Z" fill="#C4C4C4"/>
<path d="M12.5204 24.6408C13.7568 24.6408 14.7591 23.6385 14.7591 22.4021C14.7591 21.1657 13.7568 20.1635 12.5204 20.1635C11.284 20.1635 10.2817 21.1657 10.2817 22.4021C10.2817 23.6385 11.284 24.6408 12.5204 24.6408Z" fill="#C4C4C4"/>
<path d="M16.2515 6.73145H8.78931C8.39349 6.73145 8.01389 6.88868 7.734 7.16857C7.45411 7.44846 7.29688 7.82807 7.29688 8.22389C7.29688 8.6197 7.45411 8.99931 7.734 9.2792C8.01389 9.55909 8.39349 9.71632 8.78931 9.71632H16.2515C16.6473 9.71632 17.0269 9.55909 17.3068 9.2792C17.5867 8.99931 17.744 8.6197 17.744 8.22389C17.744 7.82807 17.5867 7.44846 17.3068 7.16857C17.0269 6.88868 16.6473 6.73145 16.2515 6.73145Z" fill="#C4C4C4"/>
</svg>
