<svg width="37" height="37" viewBox="0 0 37 37" fill="none" xmlns="http://www.w3.org/2000/svg">
<path d="M18.6548 23.1854C21.1276 23.1854 23.1321 21.1808 23.1321 18.708C23.1321 16.2353 21.1276 14.2307 18.6548 14.2307C16.1821 14.2307 14.1775 16.2353 14.1775 18.708C14.1775 21.1808 16.1821 23.1854 18.6548 23.1854Z" stroke="#C4C4C4" stroke-width="4.16667" stroke-linecap="round" stroke-linejoin="round"/>
<path d="M29.6989 23.1854C29.5002 23.6356 29.4409 24.1349 29.5287 24.619C29.6165 25.1032 29.8473 25.5499 30.1914 25.9017L30.2809 25.9912C30.5585 26.2684 30.7786 26.5976 30.9288 26.96C31.079 27.3223 31.1564 27.7107 31.1564 28.103C31.1564 28.4953 31.079 28.8837 30.9288 29.246C30.7786 29.6084 30.5585 29.9376 30.2809 30.2148C30.0037 30.4923 29.6745 30.7125 29.3122 30.8627C28.9498 31.0129 28.5614 31.0902 28.1691 31.0902C27.7769 31.0902 27.3885 31.0129 27.0261 30.8627C26.6637 30.7125 26.3345 30.4923 26.0573 30.2148L25.9678 30.1253C25.616 29.7812 25.1693 29.5504 24.6852 29.4626C24.201 29.3748 23.7017 29.4341 23.2515 29.6328C22.8101 29.8219 22.4336 30.1361 22.1685 30.5365C21.9033 30.9369 21.761 31.4061 21.7591 31.8863V32.1401C21.7591 32.9317 21.4446 33.6909 20.8848 34.2507C20.3251 34.8105 19.5659 35.1249 18.7742 35.1249C17.9826 35.1249 17.2234 34.8105 16.6636 34.2507C16.1038 33.6909 15.7893 32.9317 15.7893 32.1401V32.0057C15.7778 31.5118 15.6179 31.0327 15.3304 30.6308C15.043 30.2289 14.6413 29.9227 14.1775 29.7522C13.7274 29.5535 13.228 29.4942 12.7439 29.582C12.2597 29.6698 11.813 29.9006 11.4613 30.2447L11.3717 30.3342C11.0945 30.6117 10.7653 30.8319 10.4029 30.9821C10.0406 31.1323 9.65217 31.2096 9.25991 31.2096C8.86765 31.2096 8.47923 31.1323 8.11688 30.9821C7.75452 30.8319 7.42532 30.6117 7.1481 30.3342C6.87058 30.057 6.65042 29.7278 6.50021 29.3654C6.34999 29.0031 6.27268 28.6147 6.27268 28.2224C6.27268 27.8301 6.34999 27.4417 6.50021 27.0794C6.65042 26.717 6.87058 26.3878 7.1481 26.1106L7.23765 26.0211C7.58171 25.6693 7.81252 25.2226 7.9003 24.7384C7.98808 24.2543 7.92882 23.755 7.73016 23.3048C7.54097 22.8634 7.22684 22.4869 6.82643 22.2218C6.42602 21.9566 5.95682 21.8143 5.47657 21.8124H5.22286C4.43122 21.8124 3.672 21.4979 3.11223 20.9381C2.55245 20.3783 2.23798 19.6191 2.23798 18.8275C2.23798 18.0359 2.55245 17.2766 3.11223 16.7169C3.672 16.1571 4.43122 15.8426 5.22286 15.8426H5.35718C5.85117 15.8311 6.33025 15.6712 6.73216 15.3837C7.13407 15.0962 7.4402 14.6945 7.61076 14.2308C7.80943 13.7806 7.86869 13.2813 7.78091 12.7972C7.69312 12.313 7.46232 11.8663 7.11826 11.5145L7.02871 11.425C6.75119 11.1478 6.53102 10.8186 6.38081 10.4562C6.2306 10.0939 6.15328 9.70545 6.15328 9.31319C6.15328 8.92093 6.2306 8.53252 6.38081 8.17016C6.53102 7.8078 6.75119 7.4786 7.02871 7.20139C7.30592 6.92386 7.63512 6.7037 7.99748 6.55349C8.35984 6.40328 8.74825 6.32596 9.14051 6.32596C9.53277 6.32596 9.92118 6.40328 10.2835 6.55349C10.6459 6.7037 10.9751 6.92386 11.2523 7.20139L11.3419 7.29093C11.6936 7.635 12.1403 7.8658 12.6245 7.95358C13.1086 8.04137 13.608 7.98211 14.0581 7.78344H14.1775C14.6189 7.59425 14.9954 7.28012 15.2605 6.87971C15.5257 6.47931 15.668 6.0101 15.6699 5.52985V5.27614C15.6699 4.4845 15.9844 3.72528 16.5442 3.16551C17.104 2.60574 17.8632 2.29126 18.6548 2.29126C19.4465 2.29126 20.2057 2.60574 20.7654 3.16551C21.3252 3.72528 21.6397 4.4845 21.6397 5.27614V5.41046C21.6416 5.89071 21.7839 6.35991 22.0491 6.76032C22.3143 7.16073 22.6907 7.47486 23.1321 7.66404C23.5823 7.86271 24.0816 7.92197 24.5658 7.83419C25.0499 7.7464 25.4966 7.5156 25.8484 7.17154L25.9379 7.08199C26.2151 6.80447 26.5443 6.58431 26.9067 6.43409C27.2691 6.28388 27.6575 6.20657 28.0497 6.20657C28.442 6.20657 28.8304 6.28388 29.1928 6.43409C29.5551 6.58431 29.8843 6.80447 30.1615 7.08199C30.4391 7.35921 30.6592 7.68841 30.8094 8.05076C30.9596 8.41312 31.037 8.80154 31.037 9.19379C31.037 9.58605 30.9596 9.97447 30.8094 10.3368C30.6592 10.6992 30.4391 11.0284 30.1615 11.3056L30.072 11.3951C29.7279 11.7469 29.4971 12.1936 29.4093 12.6778C29.3216 13.1619 29.3808 13.6612 29.5795 14.1114V14.2308C29.7687 14.6722 30.0828 15.0487 30.4832 15.3138C30.8836 15.579 31.3528 15.7213 31.8331 15.7232H32.0868C32.8784 15.7232 33.6376 16.0377 34.1974 16.5975C34.7572 17.1572 35.0717 17.9165 35.0717 18.7081C35.0717 19.4997 34.7572 20.259 34.1974 20.8187C33.6376 21.3785 32.8784 21.693 32.0868 21.693H31.9525C31.4722 21.6949 31.003 21.8372 30.6026 22.1024C30.2022 22.3675 29.8881 22.744 29.6989 23.1854V23.1854Z" stroke="#C4C4C4" stroke-width="4.16667" stroke-linecap="round" stroke-linejoin="round"/>
</svg>