<svg width="22" height="16" viewBox="0 0 22 16" fill="none" xmlns="http://www.w3.org/2000/svg">
<path d="M0 0H22V16H0V0Z" fill="#000066"/>
<path d="M0 0V0.933334L10.5531 8.33334H11.8834V7.4L1.33031 0H0ZM11.8834 0V0.933334L1.33031 8.33334H0V7.4L10.5531 0H11.8834Z" fill="white"/>
<path d="M4.95 0V8.33334H6.93V0H4.95ZM0 2.77667V5.55667H11.8834V2.77667H0Z" fill="white"/>
<path d="M0 3.33333V5H11.8834V3.33333H0ZM5.34875 0V8.33334H6.53125V0H5.34531H5.34875ZM0 8.33334L3.96 5.55667H4.84687L0.886875 8.33334H0ZM0 0L3.96 2.77667H3.07656L0 0.62V0ZM7.03656 2.77667L10.9966 0H11.8834L7.92344 2.77667H7.03656ZM11.8834 8.33334L7.92344 5.55667H8.80687L11.8834 7.71334V8.33334Z" fill="#CC0000"/>
<path fill-rule="evenodd" clip-rule="evenodd" d="M10.3056 13.0834L8.80341 13.21L9.00966 14.6567L7.97497 13.6L6.94029 14.6567L7.14654 13.21L5.64435 13.0834L6.94029 12.34L6.10497 11.1234L7.51435 11.64L7.97497 10.25L8.43904 11.64L9.84841 11.1234L9.0131 12.34L10.3056 13.0834ZM16.7268 14.4167L16.3625 13.89L16.9743 14.1134L17.1737 13.51L17.3731 14.1134L17.985 13.89L17.624 14.4167L18.1878 14.74L17.5347 14.7967L17.624 15.4267L17.1772 14.9634L16.7234 15.4267L16.8128 14.7967L16.1597 14.7434L16.7268 14.4167ZM16.7234 5.01336L16.3625 4.48669L16.9743 4.71002L17.1737 4.10669L17.3731 4.71002L17.985 4.48669L17.624 5.01336L18.1878 5.34002L17.5347 5.39336L17.624 6.02336L17.1772 5.56336L16.7234 6.02002L16.8128 5.39336L16.1597 5.34002L16.7234 5.01336ZM13.09 8.83336L12.729 8.30669L13.3409 8.53003L13.5403 7.92669L13.7431 8.53003L14.355 8.30669L13.9906 8.83336L14.5543 9.15669L13.9012 9.21336L13.994 9.84336L13.5403 9.38003L13.0934 9.84336L13.1793 9.21336L12.5262 9.16003L13.09 8.83336ZM19.9615 7.89336L19.5937 7.36669L20.2056 7.59002L20.405 6.98669L20.6078 7.59002L21.2197 7.36669L20.8587 7.89336L21.419 8.21669L20.7659 8.27336L20.8553 8.90003L20.4084 8.44002L19.9547 8.90003L20.044 8.27336L19.3909 8.21669L19.9615 7.89336ZM18.6312 10.6667L18.2772 10.8834L18.3768 10.4867L18.0572 10.2267L18.4731 10.1934L18.6312 9.82003L18.7928 10.1967L19.2087 10.2267L18.889 10.4867L18.9887 10.8834" fill="white"/>
</svg>
