<svg width="21" height="16" viewBox="0 0 21 16" fill="none" xmlns="http://www.w3.org/2000/svg">
<path fill-rule="evenodd" clip-rule="evenodd" d="M0 0H21V16H0V0Z" fill="#229E45"/>
<path fill-rule="evenodd" clip-rule="evenodd" d="M10.5459 14.5333L20.4389 8.01001L10.4869 1.46667L0.561096 8.02334L10.5459 14.5333Z" fill="#F8E509"/>
<path fill-rule="evenodd" clip-rule="evenodd" d="M14.8575 8C14.8575 10.3433 12.9839 12.2433 10.6706 12.2433C9.84399 12.242 9.03629 11.9917 8.34963 11.5242C7.66298 11.0566 7.1282 10.3927 6.8129 9.61641C6.49761 8.84012 6.41595 7.9863 6.57826 7.16287C6.74056 6.33945 7.13954 5.5834 7.72476 4.99029C8.30997 4.39718 9.05515 3.99365 9.86609 3.83071C10.677 3.66777 11.5173 3.75273 12.2807 4.07486C13.0441 4.39698 13.6964 4.94181 14.1551 5.64046C14.6137 6.33912 14.8582 7.16023 14.8575 8Z" fill="#2B49A3"/>
<path fill-rule="evenodd" clip-rule="evenodd" d="M9.29577 10.5432L9.16452 10.4666L9.03327 10.5332L9.0628 10.3832L8.9578 10.2699L9.10545 10.2532L9.17764 10.1199L9.23999 10.2599L9.38436 10.2866L9.27608 10.3866L9.29577 10.5432ZM12.098 11.2632L11.97 11.1866L11.8387 11.2533L11.865 11.1033L11.7633 10.9932L11.9109 10.9766L11.9798 10.8399L12.0455 10.9799L12.1898 11.0066L12.0783 11.1099L12.098 11.2632ZM10.8905 10.1099L10.7789 10.0432L10.664 10.1032L10.6903 9.97325L10.5984 9.87658L10.7297 9.86325L10.7887 9.74325L10.8412 9.86658L10.9692 9.88992L10.8708 9.97992L10.8905 10.1099ZM13.7255 9.69658L13.6139 9.62992L13.499 9.68992L13.5253 9.55992L13.4367 9.46658L13.5647 9.45325L13.6237 9.33658L13.6762 9.45658L13.8009 9.47992L13.7058 9.56658L13.7255 9.69658ZM10.8412 8.83325L10.71 8.75992L10.5787 8.82658L10.605 8.67325L10.5033 8.56325L10.6509 8.54658L10.7198 8.40992L10.7855 8.54992L10.9298 8.57658L10.8183 8.68325L10.8412 8.83325ZM7.38608 7.51658L7.25483 7.44325L7.12358 7.50992L7.15639 7.35658L7.04811 7.24658L7.19905 7.22992L7.26467 7.09325L7.3303 7.23325L7.47467 7.25992L7.36639 7.36325L7.38608 7.51658ZM7.8028 9.26992L7.67155 9.19325L7.5403 9.25992L7.56983 9.10992L7.46483 8.99992L7.61249 8.97992L7.68139 8.84658L7.74702 8.98658L7.89139 9.01325L7.78311 9.11658L7.8028 9.26992ZM12.1144 6.87325L11.9962 6.80658L11.8781 6.86658L11.9044 6.73325L11.8125 6.63325L11.9437 6.61658L12.0061 6.49658L12.0619 6.62325L12.1931 6.64658L12.0947 6.73658L12.1144 6.87325ZM11.8748 8.01325L11.7862 7.95992L11.6911 8.00658L11.7108 7.89992L11.6386 7.82325L11.7436 7.80992L11.7928 7.71658L11.8355 7.81658L11.9339 7.83325L11.8617 7.90658L11.8748 8.01325ZM7.19577 9.58658L7.10717 9.53658L7.01858 9.57992L7.03827 9.47992L6.96936 9.40658L7.0678 9.39325L7.11374 9.30325L7.15639 9.39658L7.25483 9.41658L7.17936 9.48325L7.19577 9.58658ZM13.7484 9.99325L13.6762 9.95658L13.604 9.98992L13.6205 9.91325L13.5647 9.85992L13.6434 9.84992L13.6828 9.78325L13.7156 9.84992L13.7976 9.86658L13.7353 9.91658" fill="#FFFFEF"/>
<path fill-rule="evenodd" clip-rule="evenodd" d="M7.19577 9.58668L7.10717 9.53668L7.01858 9.58001L7.03827 9.48001L6.96936 9.40668L7.0678 9.39334L7.11374 9.30334L7.15639 9.39668L7.25483 9.41668L7.17936 9.48335" fill="#FFFFEF"/>
<path fill-rule="evenodd" clip-rule="evenodd" d="M7.19577 9.58658L7.10717 9.53658L7.01858 9.57992L7.03827 9.47992L6.96936 9.40658L7.0678 9.39325L7.11374 9.30325L7.15639 9.39658L7.25483 9.41658L7.17936 9.48325L7.19577 9.58658ZM8.56733 9.58325L8.48202 9.53658L8.39342 9.57992L8.41311 9.47992L8.34421 9.40658L8.44264 9.39325L8.48858 9.30325L8.53124 9.39658L8.62967 9.41325L8.55421 9.48325L8.56733 9.58325ZM8.3967 10.0499L8.31139 9.99992L8.2228 10.0466L8.24249 9.94658L8.17358 9.86992L8.27202 9.85658L8.31796 9.76658L8.36061 9.85991L8.45905 9.87991L8.38358 9.94658L8.3967 10.0499ZM11.2514 9.20658L11.1661 9.15325L11.0742 9.19992L11.0939 9.09992L11.0283 9.02325L11.1267 9.01325L11.1726 8.92325L11.212 9.01658L11.3105 9.03325L11.2383 9.10325L11.2514 9.20658ZM10.4147 9.20325L10.3261 9.15325L10.2375 9.19992L10.2572 9.09992L10.1916 9.02325L10.29 9.01325L10.3359 8.91992L10.3753 9.01658L10.4737 9.03325L10.4015 9.10325L10.4147 9.20325ZM8.14405 8.90992L8.08827 8.87658L8.03249 8.90325L8.04561 8.83992L8.00295 8.79325L8.0653 8.78658L8.09155 8.72992L8.1178 8.78992L8.18014 8.79992L8.1342 8.84325L8.14405 8.90992ZM13.6401 10.3566L13.5548 10.3066L13.4662 10.3532L13.4859 10.2532L13.417 10.1766L13.5155 10.1632L13.5614 10.0732L13.6041 10.1666L13.7025 10.1866L13.627 10.2532L13.6401 10.3566ZM12.9445 10.4532L12.8723 10.4066L12.7969 10.4466L12.8133 10.3599L12.7575 10.2999L12.8395 10.2899L12.8789 10.2132L12.9117 10.2932L12.9937 10.3066L12.9314 10.3666L12.9445 10.4532ZM13.2726 10.4432L13.207 10.4032L13.1381 10.4366L13.1512 10.3599L13.0987 10.3032L13.1742 10.2932L13.2103 10.2266L13.2431 10.2932L13.3186 10.3099L13.2628 10.3632L13.2726 10.4432ZM14.2176 9.60325L14.152 9.56992L14.0864 9.60325L14.1028 9.52658L14.0503 9.46992L14.1258 9.45991L14.1586 9.39325L14.1914 9.46325L14.2603 9.47658L14.2078 9.52992L14.2176 9.60325ZM12.9347 10.9232L12.8526 10.8766L12.7641 10.9166L12.7837 10.8232L12.7181 10.7566L12.8166 10.7466L12.8592 10.6632L12.8986 10.7499L12.997 10.7666L12.9216 10.8299L12.9347 10.9232ZM12.9412 11.3032L12.8625 11.2566L12.7837 11.2999L12.8034 11.2066L12.7411 11.1399L12.8297 11.1266L12.8691 11.0432L12.9051 11.1299L12.9937 11.1466L12.9281 11.2132L12.9412 11.3032ZM12.3047 10.4432L12.2423 10.4032L12.1767 10.4366L12.1898 10.3632L12.1406 10.3066L12.2128 10.2999L12.2456 10.2332L12.2784 10.2999L12.3506 10.3132L12.2981 10.3666L12.3047 10.4432ZM11.7141 10.4432L11.6484 10.4032L11.5828 10.4366L11.5992 10.3632L11.5467 10.3066L11.6222 10.2999L11.655 10.2332L11.6878 10.2999L11.7567 10.3132L11.7042 10.3666L11.7141 10.4432ZM10.7067 9.54658L10.6411 9.50991L10.5755 9.54325L10.5919 9.46658L10.5394 9.41325L10.6115 9.40325L10.6444 9.33658L10.6772 9.40325L10.7494 9.41992L10.6969 9.46992L10.7067 9.54658ZM10.8183 11.3699L10.7658 11.3399L10.7067 11.3699L10.7198 11.3032L10.6772 11.2566L10.7395 11.2499L10.7691 11.1932L10.7953 11.2532L10.8576 11.2632L10.8117 11.3066L10.8183 11.3699ZM9.29577 8.41992L9.16452 8.34325L9.03327 8.40992L9.0628 8.25992L8.9578 8.14992L9.10546 8.12992L9.17764 7.99658L9.23999 8.13658L9.38436 8.16325L9.27608 8.26658" fill="#FFFFEF"/>
<path fill-rule="evenodd" clip-rule="evenodd" d="M14.5819 9.52669C14.6632 9.31241 14.7268 9.09166 14.7722 8.86669C12.5475 6.88336 10.0702 5.86669 6.93986 6.07669C6.82632 6.29986 6.73297 6.53304 6.66095 6.77336C10.3688 6.41336 13.0922 8.08002 14.5819 9.52669Z" fill="white"/>
<path d="M13.5844 8.41328L13.6598 8.45662C13.6486 8.47925 13.6451 8.50507 13.65 8.52995C13.6577 8.55407 13.6741 8.57433 13.6959 8.58662C13.7189 8.60328 13.7419 8.61328 13.7615 8.60995C13.7812 8.60995 13.7944 8.59995 13.8042 8.58662C13.8099 8.57777 13.8123 8.5671 13.8108 8.55662C13.8081 8.5443 13.8024 8.53285 13.7944 8.52328C13.7878 8.51328 13.7714 8.48995 13.7451 8.46328C13.7182 8.43499 13.6979 8.40078 13.6861 8.36328C13.6779 8.3349 13.68 8.30448 13.6921 8.27756C13.7041 8.25064 13.7253 8.22901 13.7517 8.21662C13.7756 8.2065 13.8019 8.20417 13.8272 8.20995C13.858 8.21717 13.8871 8.23079 13.9125 8.24995C13.9584 8.28328 13.988 8.31662 13.9978 8.35662C14.0023 8.37533 14.0029 8.3948 13.9995 8.41376C13.9961 8.43271 13.9888 8.45073 13.9781 8.46662L13.8994 8.41662C13.9092 8.39662 13.9125 8.37662 13.9059 8.35995C13.9026 8.34328 13.8895 8.32662 13.8665 8.31328C13.8497 8.29951 13.8291 8.29136 13.8075 8.28995C13.8015 8.28975 13.7956 8.29119 13.7904 8.29413C13.7852 8.29706 13.7809 8.30138 13.778 8.30662C13.7714 8.31662 13.7714 8.32662 13.7747 8.33995C13.7779 8.35328 13.7944 8.37995 13.8272 8.41328C13.86 8.44662 13.8797 8.47662 13.8928 8.49662C13.9045 8.51846 13.9098 8.54327 13.9081 8.56808C13.9063 8.5929 13.8976 8.61668 13.883 8.63662C13.8676 8.65928 13.8459 8.6767 13.8206 8.68662C13.796 8.69813 13.7685 8.70162 13.7419 8.69662C13.7123 8.68995 13.6828 8.67662 13.65 8.65328C13.6008 8.61995 13.5712 8.58328 13.5614 8.54328C13.5507 8.49793 13.5578 8.45012 13.5811 8.40995L13.5844 8.41328ZM13.2037 8.15995L13.2858 8.20328C13.2756 8.2263 13.2733 8.25211 13.2792 8.27662C13.2876 8.29949 13.3039 8.31846 13.3251 8.32995C13.3514 8.34662 13.3711 8.35328 13.3908 8.34995C13.4105 8.34995 13.4236 8.33995 13.4334 8.32328C13.4384 8.31535 13.4407 8.30599 13.44 8.29662C13.44 8.28662 13.4334 8.27328 13.4236 8.26328C13.4068 8.24267 13.3893 8.22266 13.3711 8.20328C13.335 8.16662 13.312 8.13662 13.3054 8.10995C13.3001 8.0928 13.2985 8.07466 13.3007 8.05681C13.303 8.03895 13.3091 8.02182 13.3186 8.00662C13.3311 7.98605 13.3493 7.96978 13.3711 7.95995C13.3936 7.94939 13.4188 7.94591 13.4433 7.94995C13.4736 7.95514 13.5026 7.96648 13.5286 7.98328C13.5778 8.01662 13.6073 8.04995 13.6172 8.08662C13.6231 8.10535 13.6251 8.12518 13.6228 8.14474C13.6205 8.1643 13.6141 8.18314 13.604 8.19995L13.522 8.15328C13.5319 8.12995 13.5351 8.11328 13.5286 8.09662C13.522 8.07995 13.5089 8.06328 13.4859 8.04995C13.4678 8.03671 13.4459 8.02971 13.4236 8.02995C13.4182 8.03032 13.413 8.03203 13.4084 8.03494C13.4038 8.03785 13.4 8.04186 13.3973 8.04662C13.3908 8.05662 13.3908 8.06662 13.394 8.07995C13.3973 8.09328 13.417 8.11995 13.4498 8.15328C13.4826 8.18662 13.5056 8.21328 13.5155 8.23328C13.5286 8.25419 13.5356 8.27848 13.5356 8.30328C13.5356 8.32809 13.5286 8.35238 13.5155 8.37328C13.5013 8.39654 13.4808 8.41508 13.4564 8.42662C13.4318 8.43813 13.4043 8.44162 13.3776 8.43662C13.3439 8.43082 13.3115 8.41836 13.2825 8.39995C13.2401 8.37698 13.2074 8.33904 13.1906 8.29328C13.1779 8.24878 13.1826 8.20102 13.2037 8.15995ZM12.7378 8.03328L12.9773 7.63328L13.2661 7.81662L13.2267 7.88328L13.0167 7.74995L12.9642 7.83995L13.1611 7.96328L13.1184 8.02995L12.9215 7.90662L12.8559 8.01662L13.0758 8.14995L13.0364 8.21662L12.7411 8.03328H12.7378ZM12.0586 7.46662L12.0947 7.39995L12.2719 7.48995L12.1898 7.65662C12.1636 7.66328 12.1308 7.66662 12.0914 7.66328C12.0536 7.65905 12.0169 7.64775 11.9831 7.62995C11.9434 7.6103 11.9095 7.58042 11.8847 7.54328C11.8621 7.50878 11.8506 7.46802 11.8519 7.42662C11.8535 7.38352 11.8647 7.34136 11.8847 7.30328C11.9044 7.2632 11.9337 7.22881 11.97 7.20328C12.0047 7.17892 12.0459 7.16611 12.0881 7.16662C12.1209 7.16662 12.1537 7.17662 12.1931 7.19995C12.2456 7.22328 12.2784 7.25662 12.2948 7.29328C12.3119 7.32968 12.3154 7.37113 12.3047 7.40995L12.2161 7.38328C12.2215 7.36096 12.2192 7.33741 12.2095 7.31662C12.1997 7.29662 12.1833 7.28328 12.157 7.26995C12.1417 7.26108 12.1247 7.2556 12.1072 7.25388C12.0897 7.25215 12.072 7.25422 12.0553 7.25995C12.0225 7.26995 11.9929 7.29995 11.97 7.34662C11.947 7.39328 11.9372 7.43662 11.947 7.47328C11.9515 7.49067 11.9598 7.50685 11.9711 7.52067C11.9824 7.53448 11.9966 7.54562 12.0126 7.55328C12.029 7.56328 12.0487 7.56995 12.0684 7.56995C12.088 7.57297 12.1079 7.57297 12.1275 7.56995L12.1537 7.51662L12.0586 7.46662ZM9.09889 6.72328L9.16451 6.25662L9.30232 6.27995L9.33842 6.60662L9.46639 6.30662L9.6042 6.32662L9.53857 6.78662L9.44998 6.77328L9.50576 6.40995L9.36139 6.75995L9.27279 6.74662L9.2367 6.36995L9.1842 6.73662L9.09889 6.72328ZM8.63623 6.66662L8.67889 6.19995L9.01685 6.23328L9.01029 6.31328L8.7642 6.28995L8.75435 6.38995L8.98404 6.41328L8.9742 6.49328L8.74451 6.46995L8.73467 6.59662L8.99061 6.61995L8.98404 6.69995L8.63623 6.66662Z" fill="#309E3A"/>
<path d="M7.10393 6.37672C7.10393 6.32672 7.11377 6.29005 7.1269 6.25672C7.1384 6.23301 7.15396 6.21157 7.17284 6.19339C7.18967 6.17614 7.20976 6.16254 7.2319 6.15339C7.26471 6.14339 7.29752 6.13672 7.33034 6.13672C7.39924 6.13672 7.45174 6.16339 7.4944 6.20339C7.5147 6.22887 7.5298 6.2582 7.53882 6.28968C7.54783 6.32116 7.55058 6.35415 7.5469 6.38672C7.5469 6.46005 7.52393 6.52005 7.48127 6.56339C7.45935 6.58397 7.43342 6.59965 7.40516 6.60941C7.3769 6.61917 7.34694 6.6228 7.31721 6.62005C7.28788 6.62035 7.2588 6.6146 7.23173 6.60314C7.20465 6.59168 7.18015 6.57475 7.15971 6.55339C7.11888 6.50429 7.09883 6.44078 7.10393 6.37672Z" fill="#309E3A"/>
<path d="M7.1991 6.37674C7.1991 6.42674 7.20894 6.46674 7.23191 6.49674C7.25488 6.5234 7.28441 6.54007 7.32378 6.54007C7.34082 6.54128 7.3579 6.53862 7.3738 6.53227C7.38969 6.52593 7.40399 6.51607 7.41566 6.5034C7.43863 6.47674 7.44847 6.43674 7.45175 6.38007C7.45175 6.32674 7.44519 6.28674 7.41894 6.26007C7.40825 6.24663 7.39476 6.23578 7.37944 6.22828C7.36412 6.22079 7.34735 6.21685 7.33035 6.21674C7.31309 6.21618 7.29591 6.21947 7.28004 6.22638C7.26417 6.23329 7.24998 6.24365 7.23847 6.25674C7.21222 6.2834 7.20238 6.3234 7.1991 6.37674Z" fill="#F7FFFF"/>
<path d="M7.64532 6.61669L7.65189 6.15002H7.84876C7.89798 6.15002 7.93079 6.15669 7.95376 6.16669C7.97673 6.17336 7.99314 6.19002 8.00626 6.21002C8.01939 6.23002 8.02595 6.25669 8.02595 6.28669C8.02621 6.31876 8.01448 6.34973 7.99314 6.37336C7.96888 6.39644 7.93767 6.41053 7.90454 6.41336L7.95376 6.45336C7.96689 6.46669 7.98329 6.49336 8.00298 6.53002L8.05876 6.62336H7.9472L7.88158 6.51669L7.83564 6.45002C7.82768 6.44085 7.8175 6.43396 7.80611 6.43002C7.79118 6.4256 7.77571 6.42336 7.76017 6.42336H7.74048V6.61669H7.64532Z" fill="#309E3A"/>
<path d="M7.74377 6.34998H7.8094C7.85534 6.34998 7.88487 6.34998 7.89471 6.34332C7.90455 6.34332 7.9144 6.33332 7.92096 6.32665C7.92752 6.31998 7.9308 6.30331 7.9308 6.29331C7.9308 6.27331 7.92752 6.25998 7.91768 6.25331C7.91112 6.24331 7.89799 6.23665 7.88487 6.23331H7.81924L7.74377 6.22998V6.34665V6.34998Z" fill="white"/>
<path d="M8.17031 6.17334L8.34093 6.18334C8.37703 6.18334 8.40656 6.18667 8.42625 6.19334C8.45179 6.20275 8.47442 6.21885 8.49187 6.24001C8.51077 6.26331 8.52424 6.29066 8.53125 6.32001C8.54109 6.35001 8.54437 6.38667 8.54109 6.43001C8.54106 6.46403 8.53552 6.49781 8.52468 6.53001C8.51156 6.56334 8.49187 6.59001 8.4689 6.61001C8.44979 6.62601 8.42735 6.6374 8.40328 6.64334C8.38359 6.65001 8.35406 6.65001 8.32125 6.65001L8.14734 6.64001L8.17031 6.17334Z" fill="#309E3A"/>
<path d="M8.2589 6.25671L8.24249 6.56672H8.36718C8.38358 6.56672 8.39671 6.56005 8.40655 6.55005C8.4164 6.54005 8.42624 6.52671 8.4328 6.50671C8.43936 6.48671 8.44593 6.45671 8.44593 6.42005L8.44265 6.33671C8.43796 6.31914 8.42892 6.30307 8.4164 6.29005C8.4055 6.27891 8.39193 6.27087 8.37702 6.26671C8.35221 6.2611 8.32695 6.25776 8.30155 6.25671H8.2589Z" fill="white"/>
<path d="M10.4213 7.00668L10.5295 6.55334L10.6739 6.58668L10.7789 6.62001C10.8019 6.63334 10.8216 6.65334 10.8314 6.68334C10.8445 6.71001 10.8445 6.74001 10.838 6.77668C10.8314 6.80334 10.8216 6.82668 10.8052 6.84334C10.7931 6.85798 10.7781 6.86975 10.7611 6.87781C10.7441 6.88588 10.7255 6.89004 10.7067 6.89001C10.6838 6.89001 10.651 6.88334 10.6083 6.87334L10.5525 6.85668L10.5131 7.03001L10.4213 7.00668Z" fill="#309E3A"/>
<path d="M10.5985 6.65332L10.5722 6.77999L10.6214 6.79332C10.6542 6.79999 10.6805 6.80665 10.6936 6.80332C10.7064 6.80152 10.7183 6.79574 10.7277 6.78679C10.7371 6.77784 10.7435 6.76614 10.7461 6.75332C10.7461 6.73665 10.7461 6.72332 10.7395 6.70999C10.7323 6.69644 10.7208 6.68584 10.7067 6.67999L10.6444 6.66332L10.6017 6.65332H10.5985Z" fill="white"/>
<path d="M10.8478 7.13666L11.002 6.69666L11.1825 6.76332C11.2317 6.77999 11.2612 6.79666 11.2809 6.80999C11.2973 6.82666 11.3104 6.84332 11.3137 6.86999C11.317 6.89666 11.3203 6.91999 11.3137 6.94666C11.3006 6.97999 11.2809 7.00332 11.2547 7.01999C11.2284 7.03332 11.1956 7.03666 11.1562 7.02999C11.1693 7.04666 11.1825 7.06332 11.189 7.08332L11.2153 7.17332L11.235 7.27666L11.1332 7.23999L11.1004 7.11999C11.0945 7.09285 11.0868 7.06613 11.0775 7.03999C11.0731 7.02962 11.0664 7.02047 11.0578 7.01332C11.0512 7.00332 11.0381 6.99666 11.0151 6.98999L10.9987 6.98332L10.9331 7.16999L10.8478 7.13666Z" fill="#309E3A"/>
<path d="M11.025 6.91334L11.0874 6.93668C11.13 6.95334 11.1563 6.96001 11.1694 6.96001C11.1792 6.96001 11.1891 6.96001 11.1989 6.95001C11.2088 6.94334 11.2153 6.93334 11.2186 6.92001C11.2252 6.90668 11.2252 6.89334 11.2186 6.88001C11.2138 6.86709 11.2044 6.85642 11.1924 6.85001L11.1267 6.82668L11.0611 6.80334L11.0217 6.91334H11.025Z" fill="white"/>
<path d="M11.3859 7.12006C11.3972 7.08103 11.4162 7.04474 11.4417 7.0134C11.4583 6.99329 11.4783 6.97635 11.5008 6.9634C11.5211 6.95173 11.5433 6.94382 11.5664 6.94006C11.5992 6.94006 11.632 6.94006 11.6681 6.9534C11.6974 6.96077 11.7249 6.97439 11.7487 6.99335C11.7724 7.01232 11.7919 7.03619 11.8059 7.0634C11.8322 7.11673 11.8322 7.18007 11.8125 7.2534C11.7962 7.3164 11.7561 7.37032 11.7009 7.4034C11.6517 7.4334 11.5926 7.43673 11.5303 7.41673C11.5011 7.40917 11.4737 7.39547 11.45 7.37653C11.4262 7.35758 11.4067 7.33381 11.3925 7.30673C11.3794 7.27759 11.372 7.2461 11.3709 7.21406C11.3698 7.18203 11.3749 7.15008 11.3859 7.12006Z" fill="#309E3A"/>
<path d="M11.4778 7.14667C11.4647 7.19667 11.4614 7.24001 11.4778 7.27334C11.4942 7.30667 11.5172 7.32667 11.5532 7.34001C11.5861 7.35001 11.6189 7.34667 11.6517 7.32667C11.6845 7.31001 11.7042 7.27334 11.7206 7.22001C11.737 7.17001 11.737 7.13001 11.7206 7.09667C11.7141 7.08086 11.7043 7.06669 11.6918 7.05517C11.6793 7.04364 11.6645 7.03505 11.6484 7.03001C11.6323 7.02434 11.6151 7.02231 11.5981 7.02403C11.5811 7.02576 11.5647 7.03121 11.55 7.04001C11.5172 7.06001 11.4942 7.09334 11.4778 7.14667Z" fill="white"/>
<path d="M12.2817 7.77002L12.4917 7.35669L12.6656 7.44669C12.6984 7.46267 12.7284 7.48407 12.7542 7.51002C12.7706 7.52669 12.7805 7.54669 12.7805 7.57336C12.7805 7.60002 12.7805 7.62336 12.7674 7.64669C12.7547 7.67666 12.7312 7.70054 12.7017 7.71336C12.6689 7.72002 12.6361 7.72002 12.6 7.70669C12.6131 7.72669 12.6197 7.74669 12.6263 7.76336C12.6328 7.78336 12.6361 7.81336 12.6394 7.85669L12.646 7.96336L12.5475 7.91336L12.5344 7.79002C12.5328 7.76206 12.5296 7.73423 12.5246 7.70669C12.5223 7.69422 12.5166 7.68266 12.5081 7.67336L12.4688 7.65002L12.4524 7.64002L12.3638 7.81336L12.2817 7.77002Z" fill="#309E3A"/>
<path d="M12.4852 7.57334L12.5475 7.60668C12.5869 7.62668 12.6131 7.64001 12.623 7.64001C12.6328 7.64001 12.6459 7.64001 12.6558 7.63334C12.6656 7.63001 12.6722 7.62001 12.6788 7.60668C12.6853 7.59334 12.6886 7.58001 12.6853 7.56668C12.6813 7.5534 12.6732 7.54175 12.6624 7.53334C12.6431 7.52137 12.6234 7.51024 12.6033 7.50001L12.5377 7.46667L12.4852 7.57334Z" fill="white"/>
<path d="M13.9814 8.62318C14.0026 8.5889 14.0306 8.55941 14.0634 8.53651C14.0855 8.52216 14.11 8.51199 14.1356 8.50651C14.1594 8.50157 14.184 8.50157 14.2078 8.50651C14.2406 8.51318 14.2701 8.52651 14.2997 8.54651C14.3252 8.56267 14.3472 8.58406 14.3641 8.60931C14.3811 8.63456 14.3926 8.66313 14.3981 8.69318C14.408 8.74984 14.3916 8.81318 14.3522 8.87651C14.3192 8.9316 14.2661 8.97116 14.2045 8.98651C14.1751 8.99296 14.1448 8.99302 14.1154 8.98671C14.086 8.98039 14.0582 8.96782 14.0339 8.94984C14.0084 8.93369 13.9864 8.9123 13.9695 8.88704C13.9525 8.86179 13.9409 8.83323 13.9355 8.80318C13.9256 8.74318 13.942 8.68318 13.9814 8.62318Z" fill="#309E3A"/>
<path d="M14.0634 8.6765C14.0306 8.71983 14.0207 8.75983 14.0273 8.7965C14.0297 8.81338 14.0357 8.82955 14.0447 8.84392C14.0538 8.85829 14.0657 8.87053 14.0798 8.87983C14.1126 8.90317 14.1454 8.90983 14.1782 8.89983C14.2111 8.88983 14.2439 8.8665 14.2734 8.81983C14.3029 8.77317 14.316 8.73317 14.3095 8.69983C14.3062 8.6665 14.2865 8.6365 14.257 8.61317C14.2275 8.58984 14.1914 8.5865 14.1586 8.5965C14.1257 8.60317 14.0929 8.62983 14.0601 8.6765H14.0634Z" fill="white"/>
<path d="M9.90283 6.81678L9.9783 6.49011L10.2146 6.54678L10.2047 6.60011L10.0308 6.56011L10.0144 6.63345L10.1752 6.67011L10.1621 6.72678L10.0013 6.68678L9.98158 6.77678L10.1621 6.82011L10.1489 6.87345L9.90283 6.81678Z" fill="#309E3A"/>
</svg>
