<svg width="34" height="37" viewBox="0 0 34 37" fill="none" xmlns="http://www.w3.org/2000/svg">
<path fill-rule="evenodd" clip-rule="evenodd" d="M33.1126 1.08458C33.2612 1.18765 33.3826 1.3252 33.4664 1.48543C33.5503 1.64567 33.594 1.82383 33.5939 2.00467V35.5846C33.5939 35.8814 33.476 36.1661 33.2661 36.3761C33.0562 36.586 32.7715 36.7039 32.4746 36.7039H25.7586C25.4618 36.7039 25.1771 36.586 24.9671 36.3761C24.7572 36.1661 24.6393 35.8814 24.6393 35.5846V32.2266H22.4006V35.5846C22.4006 35.8814 22.2827 36.1661 22.0728 36.3761C21.8629 36.586 21.5782 36.7039 21.2813 36.7039H1.13337C0.836503 36.7039 0.551797 36.586 0.341882 36.3761C0.131967 36.1661 0.0140381 35.8814 0.0140381 35.5846V22.1526C0.0141601 21.8877 0.108264 21.6313 0.27961 21.4292C0.450956 21.2272 0.688433 21.0924 0.949798 21.0489L13.446 18.967V8.72065C13.446 8.49297 13.5154 8.27071 13.645 8.08351C13.7746 7.89632 13.9582 7.7531 14.1713 7.67295L32.0806 0.956974C32.2498 0.893542 32.4318 0.872017 32.6112 0.894238C32.7905 0.916459 32.9618 0.981766 33.1104 1.08458H33.1126ZM15.6847 9.49522V19.9139C15.6845 20.1789 15.5904 20.4352 15.4191 20.6373C15.2477 20.8394 15.0103 20.9742 14.7489 21.0176L2.2527 23.0996V34.4652H20.162V31.1072C20.162 30.8104 20.2799 30.5257 20.4898 30.3158C20.6997 30.1058 20.9844 29.9879 21.2813 29.9879H25.7586C26.0555 29.9879 26.3402 30.1058 26.5501 30.3158C26.76 30.5257 26.878 30.8104 26.878 31.1072V34.4652H31.3553V3.62098L15.6847 9.49522Z" fill="white"/>
<path fill-rule="evenodd" clip-rule="evenodd" d="M13.446 35.5846V19.9139H15.6846V35.5846H13.446Z" fill="white"/>
<path d="M4.49133 25.5106H6.72999V27.7493H4.49133V25.5106ZM8.96865 25.5106H11.2073V27.7493H8.96865V25.5106ZM4.49133 29.9879H6.72999V32.2266H4.49133V29.9879ZM8.96865 29.9879H11.2073V32.2266H8.96865V29.9879ZM22.4006 7.60132H24.6393V9.83998H22.4006V7.60132ZM26.8779 7.60132H29.1166V9.83998H26.8779V7.60132ZM17.9233 12.0786H20.162V14.3173H17.9233V12.0786ZM22.4006 12.0786H24.6393V14.3173H22.4006V12.0786ZM26.8779 12.0786H29.1166V14.3173H26.8779V12.0786ZM22.4006 16.556H24.6393V18.7946H22.4006V16.556ZM26.8779 16.556H29.1166V18.7946H26.8779V16.556ZM17.9233 16.556H20.162V18.7946H17.9233V16.556ZM17.9233 21.0333H20.162V23.2719H17.9233V21.0333ZM22.4006 21.0333H24.6393V23.2719H22.4006V21.0333ZM26.8779 21.0333H29.1166V23.2719H26.8779V21.0333ZM17.9233 25.5106H20.162V27.7493H17.9233V25.5106ZM22.4006 25.5106H24.6393V27.7493H22.4006V25.5106ZM26.8779 25.5106H29.1166V27.7493H26.8779V25.5106Z" fill="white"/>
</svg>
