<svg width="21" height="16" viewBox="0 0 21 16" fill="none" xmlns="http://www.w3.org/2000/svg">
<g clip-path="url(#clip0_18_686)">
<path d="M-5.271 0H26.313V16.0427H-5.271V0Z" fill="#012169"/>
<path d="M-5.271 0V1.79227L22.7814 16.0427H26.313V14.2504L-1.73939 0H-5.271ZM26.313 0V1.79227L-1.73939 16.0427H-5.271V14.2504L22.7814 0H26.313Z" fill="white"/>
<path d="M7.89003 0V16.0427H13.152V0H7.89003ZM-5.271 5.3486V10.6941H26.313V5.3486H-5.271Z" fill="white"/>
<path d="M-5.271 6.41706V9.6256H26.313V6.41706H-5.271ZM8.9418 0V16.0427H12.1002V0H8.9418ZM-5.271 16.0427L5.25597 10.6941H7.61244L-2.91762 16.0427H-5.271ZM-5.271 0L5.25597 5.3486H2.9026L-5.271 1.19693V0ZM13.4327 5.3486L23.9596 0H26.313L15.786 5.3486H13.4327ZM26.313 16.0427L15.786 10.6941H18.1394L26.313 14.8457V16.0427Z" fill="#C8102E"/>
</g>
<defs>
<clipPath id="clip0_18_686">
<rect width="21" height="16" fill="white"/>
</clipPath>
</defs>
</svg>
