<svg width="22" height="16" viewBox="0 0 22 16" fill="none" xmlns="http://www.w3.org/2000/svg">
<g clip-path="url(#clip0_18_631)">
<path fill-rule="evenodd" clip-rule="evenodd" d="M0 0H31.35V1.23125H0V0ZM0 2.4625H31.35V3.69375H0V2.4625ZM0 4.92188H31.35V6.15625H0V4.92188ZM0 7.38438H31.35V8.61563H0V7.38438ZM0 9.84688H31.35V11.0781H0V9.84688ZM0 12.3062H31.35V13.5375H0V12.3062ZM0 14.7688H31.35V16H0V14.7688Z" fill="#BD3D44"/>
<path fill-rule="evenodd" clip-rule="evenodd" d="M0 1.2312H31.35V2.46245H0V1.2312ZM0 3.6937H31.35V4.92183H0V3.6937ZM0 6.15308H31.35V7.38433H0V6.15308ZM0 8.61558H31.35V9.84683H0V8.61558ZM0 11.0781H31.35V12.3093H0V11.0781ZM0 13.5375H31.35V14.7687H0V13.5375Z" fill="white"/>
<path fill-rule="evenodd" clip-rule="evenodd" d="M0 0H12.5394V8.61563H0V0Z" fill="#192F5D"/>
<path fill-rule="evenodd" clip-rule="evenodd" d="M1.04413 0.368774L1.16014 0.709399H1.52753L1.23104 0.918774L1.34384 1.26252L1.04413 1.05002L0.747644 1.2594L0.860437 0.918774L0.56073 0.709399H0.934558L1.04413 0.368774ZM3.13563 0.368774L3.24843 0.709399H3.61903L3.31932 0.918774L3.43212 1.26252L3.13563 1.05002L2.83593 1.2594L2.94872 0.918774L2.65223 0.709399H3.01962L3.13563 0.368774ZM5.22391 0.368774L5.33993 0.709399H5.70409L5.40761 0.918774L5.5204 1.26252L5.22069 1.05002L4.92421 1.2594L5.037 0.918774L4.73729 0.709399H5.1079L5.22391 0.368774ZM7.31542 0.368774L7.42821 0.709399H7.79882L7.49911 0.918774L7.61513 1.26252L7.31542 1.05002L7.01571 1.2594L7.13173 0.918774L6.83202 0.709399H7.1994L7.31542 0.368774ZM9.4037 0.368774L9.51972 0.709399H9.8871L9.59061 0.918774L9.70341 1.26252L9.4037 1.05002L9.10722 1.2594L9.22001 0.918774L8.92352 0.709399H9.29091L9.4037 0.368774ZM11.4952 0.368774L11.608 0.709399H11.9786L11.6789 0.918774L11.7949 1.26252L11.4952 1.05002L11.1955 1.2594L11.3115 0.918774L11.0118 0.709399H11.3824L11.4952 0.368774ZM2.09149 1.23127L2.20428 1.5719H2.57489L2.27518 1.78127L2.38475 2.1219L2.09471 1.91252L1.79501 2.1219L1.90136 1.78127L1.61132 1.5719H1.9787L2.09149 1.23127ZM4.17977 1.23127L4.29579 1.5719H4.66317L4.36346 1.78127L4.47948 2.1219L4.17977 1.91252L3.88007 2.1219L3.99608 1.78127L3.69637 1.5719H4.06698L4.17977 1.23127ZM6.27128 1.23127L6.38407 1.5719H6.75468L6.45497 1.78127L6.56776 2.1219L6.27128 1.91252L5.97157 2.1219L6.08436 1.78127L5.78788 1.5719H6.15526L6.27128 1.23127ZM8.35956 1.23127L8.47557 1.5719H8.84296L8.54325 1.78127L8.65927 2.1219L8.35956 1.91252L8.06307 2.1219L8.17587 1.78127L7.87616 1.5719H8.24999L8.35956 1.23127ZM10.4511 1.23127L10.5639 1.5719H10.9345L10.6348 1.78127L10.7475 2.1219L10.4511 1.91252L10.1514 2.1219L10.2641 1.78127L9.96766 1.5719H10.335L10.4511 1.23127ZM1.04413 2.09065L1.16014 2.43752H1.52753L1.23104 2.6469L1.34384 2.98752L1.04413 2.77502L0.747644 2.98752L0.860437 2.64377L0.56073 2.4344H0.934558L1.04413 2.09065ZM3.13563 2.09065L3.24843 2.4344H3.61903L3.31932 2.64377L3.43212 2.9844L3.13563 2.7719L2.83593 2.9844L2.94872 2.64065L2.65223 2.43127H3.01962L3.13563 2.09065ZM5.22391 2.09065L5.33993 2.4344H5.70409L5.40761 2.64377L5.5204 2.9844L5.22069 2.7719L4.92421 2.9844L5.037 2.64065L4.73729 2.43127H5.1079L5.22391 2.09065ZM7.31542 2.09065L7.42821 2.4344H7.79882L7.49911 2.64377L7.61513 2.9844L7.31542 2.7719L7.01571 2.9844L7.13173 2.64065L6.83202 2.43127H7.1994L7.31542 2.09065ZM9.4037 2.09065L9.51972 2.4344H9.8871L9.59061 2.64377L9.70341 2.9844L9.4037 2.7719L9.10722 2.9844L9.22001 2.64065L8.92352 2.43127H9.29091L9.4037 2.09065ZM11.4952 2.09065L11.608 2.4344H11.9786L11.6789 2.64377L11.7949 2.9844L11.4952 2.7719L11.1955 2.9844L11.3115 2.64065L11.0118 2.43127H11.3824L11.4952 2.09065ZM2.09149 2.95315L2.20428 3.29377H2.57489L2.27518 3.50315L2.38798 3.8469L2.09149 3.6344L1.79178 3.84377L1.90458 3.50315L1.60809 3.29377H1.97548L2.09149 2.95315ZM4.17977 2.95315L4.29579 3.29377H4.66317L4.36346 3.50315L4.47948 3.8469L4.17977 3.6344L3.88007 3.84377L3.99608 3.50315L3.69637 3.29377H4.06698L4.17977 2.95315ZM6.27128 2.95315L6.38407 3.29377H6.75468L6.45497 3.50315L6.56776 3.8469L6.27128 3.6344L5.97157 3.84377L6.08436 3.50315L5.78788 3.29377H6.15526L6.27128 2.95315ZM8.35956 2.95315L8.47557 3.29377H8.84296L8.54647 3.50315L8.65927 3.8469L8.35956 3.6344L8.06307 3.84377L8.17587 3.50315L7.87616 3.29377H8.24999L8.35956 2.95315ZM10.4511 2.95315L10.5639 3.29377H10.9345L10.6348 3.50315L10.7475 3.8469L10.4511 3.6344L10.1514 3.84377L10.2641 3.50315L9.96766 3.29377H10.335L10.4511 2.95315ZM1.04413 3.81565L1.16014 4.15627H1.52753L1.23104 4.36565L1.34384 4.7094L1.04413 4.4969L0.747644 4.70627L0.860437 4.36565L0.56073 4.15627H0.934558L1.04413 3.81565ZM3.13563 3.81565L3.24843 4.15627H3.61903L3.31932 4.36565L3.43212 4.70627L3.13563 4.4969L2.83593 4.70627L2.94872 4.36565L2.65223 4.15627H3.01962L3.13563 3.81565ZM5.22391 3.81565L5.33993 4.15627H5.70409L5.40761 4.36565L5.5204 4.7094L5.22069 4.4969L4.92421 4.70627L5.037 4.36565L4.73729 4.15627H5.1079L5.22391 3.81565ZM7.31542 3.81565L7.42821 4.15627H7.79882L7.49911 4.36565L7.61513 4.7094L7.31542 4.4969L7.01571 4.70627L7.13173 4.36565L6.83202 4.15627H7.1994L7.31542 3.81565ZM9.4037 3.81565L9.51972 4.15627H9.8871L9.59061 4.36565L9.70341 4.7094L9.4037 4.4969L9.10722 4.70627L9.22001 4.36565L8.92352 4.15627H9.29091L9.4037 3.81565ZM11.4952 3.81565L11.608 4.15627H11.9786L11.6789 4.36565L11.7949 4.7094L11.4952 4.4969L11.1955 4.70627L11.3115 4.36565L11.0118 4.15627H11.3824L11.4952 3.81565ZM2.09149 4.67815L2.20428 5.01877H2.57489L2.27518 5.22815L2.38798 5.56877L2.09149 5.35627L1.79178 5.56877L1.90458 5.22502L1.60809 5.01565H1.97548L2.09149 4.67815ZM4.17977 4.67815L4.29579 5.01877H4.66317L4.36346 5.22815L4.47948 5.56877L4.17977 5.35627L3.88007 5.56877L3.99608 5.22502L3.69637 5.01565H4.06698L4.17977 4.67815ZM6.27128 4.67815L6.38407 5.01877H6.75468L6.45497 5.22815L6.56776 5.56877L6.27128 5.35627L5.97157 5.56877L6.08436 5.22502L5.78788 5.01565H6.15526L6.27128 4.67815ZM8.35956 4.67815L8.47557 5.01877H8.84296L8.54647 5.22815L8.65927 5.56877L8.35956 5.35627L8.06307 5.56877L8.17587 5.22502L7.87616 5.01565H8.24999L8.35956 4.67815ZM10.4511 4.67815L10.5639 5.01877H10.9345L10.6348 5.22815L10.7475 5.56877L10.4511 5.35627L10.1514 5.56877L10.2641 5.22502L9.96766 5.01565H10.335L10.4511 4.67815ZM1.04413 5.53752L1.16014 5.88127H1.52753L1.23104 6.09065L1.34384 6.42815L1.04413 6.21877L0.747644 6.42815L0.860437 6.08752L0.56073 5.87815H0.934558L1.04413 5.53752ZM3.13563 5.53752L3.24843 5.88127H3.61903L3.31932 6.09065L3.43534 6.42815L3.13563 6.21877L2.83593 6.42815L2.95194 6.08752L2.65223 5.87815H3.01962L3.13563 5.53752ZM5.22391 5.53752L5.33993 5.88127H5.70409L5.40761 6.09065L5.5204 6.42815L5.22069 6.21877L4.92421 6.42815L5.037 6.08752L4.73729 5.87815H5.1079L5.22391 5.53752ZM7.31542 5.53752L7.42821 5.88127H7.79882L7.49911 6.09065L7.61513 6.42815L7.31542 6.21877L7.01571 6.42815L7.13173 6.08752L6.83202 5.87815H7.1994L7.31542 5.53752ZM9.4037 5.53752L9.51972 5.88127H9.8871L9.59061 6.09065L9.70341 6.42815L9.4037 6.21877L9.10722 6.42815L9.22001 6.08752L8.92352 5.87815H9.29091L9.4037 5.53752ZM11.4952 5.53752L11.608 5.88127H11.9786L11.6789 6.09065L11.7949 6.42815L11.4952 6.21877L11.1955 6.42815L11.3115 6.08752L11.0118 5.87815H11.3824L11.4952 5.53752ZM2.09149 6.40002L2.20428 6.74065H2.57489L2.27518 6.95002L2.38798 7.29377L2.09149 7.08127L1.79178 7.29065L1.90458 6.95002L1.60809 6.74065H1.97548L2.09149 6.40002ZM4.17977 6.40002L4.29579 6.74065H4.66317L4.36346 6.95002L4.47948 7.29377L4.17977 7.08127L3.88007 7.29065L3.99608 6.95002L3.69637 6.74065H4.06698L4.17977 6.40002ZM6.27128 6.40002L6.38407 6.74065H6.75468L6.45497 6.95002L6.56776 7.29377L6.27128 7.08127L5.97157 7.29065L6.08436 6.95002L5.78788 6.74065H6.15526L6.27128 6.40002ZM8.35956 6.40002L8.47557 6.74065H8.84296L8.54647 6.95002L8.65927 7.29377L8.35956 7.08127L8.06307 7.29065L8.17587 6.95002L7.87616 6.74065H8.24999L8.35956 6.40002ZM10.4511 6.40002L10.5639 6.74065H10.9345L10.6348 6.95002L10.7475 7.29377L10.4511 7.08127L10.1514 7.29065L10.2641 6.95002L9.96766 6.74065H10.335L10.4511 6.40002ZM1.04413 7.26252L1.16014 7.60315H1.52753L1.23104 7.81252L1.34384 8.15315L1.04413 7.94377L0.747644 8.15315L0.860437 7.8094L0.56073 7.60002H0.934558L1.04413 7.26252ZM3.13563 7.26252L3.24843 7.60315H3.61903L3.31932 7.81252L3.43534 8.15315L3.13563 7.94377L2.83593 8.15315L2.95194 7.8094L2.65223 7.60002H3.01962L3.13563 7.26252ZM5.22391 7.26252L5.33993 7.60315H5.70409L5.41405 7.81252L5.52684 8.15315L5.22714 7.94377L4.93065 8.15315L5.04345 7.8094L4.74374 7.60002H5.11434L5.22391 7.26252ZM7.31542 7.26252L7.42821 7.60315H7.79882L7.49911 7.81252L7.61513 8.15315L7.31542 7.94377L7.01571 8.15315L7.13173 7.8094L6.83202 7.60002H7.1994L7.31542 7.26252ZM9.4037 7.26252L9.51972 7.60315H9.8871L9.59061 7.81252L9.70341 8.15315L9.4037 7.94377L9.10722 8.15315L9.22001 7.8094L8.92352 7.60002H9.29091L9.4037 7.26252ZM11.4952 7.26252L11.608 7.60315H11.9786L11.6789 7.81252L11.7949 8.15315L11.4952 7.94377L11.1955 8.15315L11.3115 7.8094L11.0118 7.60002H11.3824L11.4952 7.26252Z" fill="white"/>
</g>
<defs>
<clipPath id="clip0_18_631">
<rect width="22" height="16" fill="white"/>
</clipPath>
</defs>
</svg>
