<svg width="51" height="57" viewBox="0 0 51 57" fill="none" xmlns="http://www.w3.org/2000/svg">
<path d="M41.9797 7.0395C41.753 7.0395 41.5263 6.9825 41.3279 6.8685C35.8869 4.047 31.1827 2.85 25.5433 2.85C19.9323 2.85 14.6047 4.1895 9.75879 6.8685C9.07867 7.239 8.22851 6.9825 7.83178 6.2985C7.65504 5.96518 7.6154 5.57542 7.72138 5.21302C7.82737 4.85062 8.07051 4.54451 8.39855 4.3605C13.6695 1.482 19.4506 0 25.5433 0C31.5794 0 36.8504 1.3395 42.6315 4.332C43.3399 4.7025 43.595 5.5575 43.2266 6.2415C43.1145 6.47908 42.938 6.68002 42.7175 6.82119C42.4969 6.96237 42.2411 7.03804 41.9797 7.0395ZM1.42727 22.002C1.16605 22.0044 0.909264 21.9341 0.685389 21.7987C0.461513 21.6633 0.279302 21.4682 0.158966 21.235C0.0386313 21.0018 -0.0151244 20.7397 0.00366187 20.4776C0.0224481 20.2156 0.113042 19.9639 0.265395 19.7505C3.07091 15.7605 6.64156 12.6255 10.8923 10.431C19.7906 5.814 31.1827 5.7855 40.1093 10.4025C44.3601 12.597 47.9308 15.7035 50.7363 19.665C50.845 19.8182 50.9225 19.9915 50.9643 20.1749C51.006 20.3583 51.0112 20.5483 50.9796 20.7338C50.948 20.9193 50.8802 21.0966 50.78 21.2556C50.6799 21.4146 50.5495 21.552 50.3962 21.66C49.7444 22.116 48.8659 21.9735 48.4125 21.318C45.9308 17.7851 42.6344 14.91 38.8058 12.939C30.6726 8.7495 20.2724 8.7495 12.1676 12.9675C8.31353 14.9625 5.08294 17.8125 2.53248 21.4035C2.30577 21.8025 1.88069 22.002 1.42727 22.002ZM19.1388 56.4015C18.953 56.4038 18.7688 56.3669 18.5979 56.2933C18.4271 56.2197 18.2735 56.1109 18.147 55.974C15.6815 53.4945 14.3496 51.8985 12.4509 48.45C10.4956 44.9445 9.47541 40.6695 9.47541 36.081C9.47541 27.6165 16.6734 20.7195 25.515 20.7195C34.3566 20.7195 41.5546 27.6165 41.5546 36.081C41.5546 36.879 40.9311 37.506 40.1377 37.506C39.3442 37.506 38.7207 36.879 38.7207 36.081C38.7207 29.184 32.798 23.5695 25.515 23.5695C18.232 23.5695 12.3093 29.184 12.3093 36.081C12.3093 40.185 13.2161 43.9755 14.9447 47.0535C16.7584 50.331 18.0053 51.7275 20.1874 53.9505C20.7258 54.5205 20.7258 55.404 20.1874 55.974C19.8756 56.259 19.5072 56.4015 19.1388 56.4015ZM39.4575 51.129C36.0853 51.129 33.1097 50.274 30.6726 48.5925C26.4502 45.714 23.928 41.04 23.928 36.081C23.928 35.283 24.5515 34.656 25.345 34.656C26.1384 34.656 26.7619 35.283 26.7619 36.081C26.7619 40.0995 28.8023 43.89 32.2596 46.227C34.2716 47.595 36.6237 48.2505 39.4575 48.2505C40.1377 48.2505 41.2712 48.165 42.4047 47.9655C43.1699 47.823 43.9067 48.336 44.0484 49.134C44.1901 49.9035 43.68 50.6445 42.8865 50.787C41.2712 51.1005 39.8543 51.129 39.4575 51.129ZM33.7615 57C33.6481 57 33.5065 56.9715 33.3931 56.943C28.8873 55.689 25.9401 54.0075 22.8512 50.958C20.8938 49.0142 19.3417 46.6973 18.2858 44.1427C17.2298 41.5882 16.6913 38.8475 16.7017 36.081C16.7017 31.464 20.6124 27.702 25.43 27.702C30.2475 27.702 34.1582 31.464 34.1582 36.081C34.1582 39.1305 36.7937 41.61 40.0526 41.61C43.3116 41.61 45.9471 39.1305 45.9471 36.081C45.9471 25.3365 36.737 16.6155 25.4016 16.6155C17.3535 16.6155 9.9855 21.1185 6.6699 28.101C5.56469 30.4095 4.99793 33.117 4.99793 36.081C4.99793 38.304 5.19629 41.8095 6.8966 46.3695C7.17999 47.1105 6.81159 47.937 6.07479 48.1935C5.33799 48.4785 4.51617 48.0795 4.26112 47.367C2.8956 43.7626 2.19458 39.9381 2.19241 36.081C2.19241 32.661 2.8442 29.5545 4.11943 26.847C7.88845 18.8955 16.2483 13.737 25.4016 13.737C38.2957 13.737 48.7809 23.7405 48.7809 36.0525C48.7809 40.6695 44.8702 44.4315 40.0526 44.4315C35.2351 44.4315 31.3244 40.6695 31.3244 36.0525C31.3244 33.003 28.6889 30.5235 25.43 30.5235C22.1711 30.5235 19.5356 33.003 19.5356 36.0525C19.5356 40.926 21.4059 45.486 24.8349 48.906C27.527 51.585 30.1058 53.067 34.1016 54.1785C34.8667 54.378 35.2918 55.176 35.0934 55.917C34.9517 56.5725 34.3566 57 33.7615 57Z" fill="white"/>
</svg>
