<svg width="20" height="26" viewBox="0 0 20 26" fill="none" xmlns="http://www.w3.org/2000/svg">
<path d="M10 0.5C6.55375 0.5 3.75 3.30375 3.75 6.75V9.25H2.5C1.12125 9.25 0 10.3712 0 11.75V23C0 24.3788 1.12125 25.5 2.5 25.5H17.5C18.8788 25.5 20 24.3788 20 23V11.75C20 10.3712 18.8788 9.25 17.5 9.25H16.25V6.75C16.25 3.30375 13.4462 0.5 10 0.5ZM6.25 6.75C6.25 4.6825 7.9325 3 10 3C12.0675 3 13.75 4.6825 13.75 6.75V9.25H6.25V6.75ZM17.5025 23H11.25V20.1525C11.9938 19.7188 12.5 18.9212 12.5 18C12.5 16.6212 11.3788 15.5 10 15.5C8.62125 15.5 7.5 16.6212 7.5 18C7.5 18.92 8.00625 19.7188 8.75 20.1525V23H2.5V11.75H17.5L17.5025 23V23Z" fill="#69ADA7"/>
</svg>
