<svg width="40" height="42" viewBox="0 0 40 42" fill="none" xmlns="http://www.w3.org/2000/svg">
<path fill-rule="evenodd" clip-rule="evenodd" d="M39.4267 0.233153C39.6037 0.35402 39.7483 0.5153 39.8481 0.703192C39.948 0.891084 40.0001 1.09999 40 1.31204V40.6875C40 41.0356 39.8595 41.3694 39.6095 41.6156C39.3594 41.8617 39.0203 42 38.6667 42H30.6667C30.313 42 29.9739 41.8617 29.7239 41.6156C29.4738 41.3694 29.3333 41.0356 29.3333 40.6875V36.7499H26.6667V40.6875C26.6667 41.0356 26.5262 41.3694 26.2761 41.6156C26.0261 41.8617 25.687 42 25.3333 42H1.33333C0.979711 42 0.640573 41.8617 0.390524 41.6156C0.140476 41.3694 0 41.0356 0 40.6875V24.9373C0.000145292 24.6266 0.112241 24.3261 0.316346 24.0891C0.520451 23.8521 0.803332 23.6941 1.11467 23.6432L16 21.2019V9.18713C16 8.92016 16.0827 8.65953 16.2371 8.44003C16.3915 8.22053 16.6102 8.05259 16.864 7.95862L38.1973 0.0835259C38.3989 0.0091461 38.6157 -0.0160941 38.8293 0.00996217C39.043 0.0360184 39.247 0.112597 39.424 0.233153H39.4267ZM18.6667 10.0954V22.3123C18.6665 22.623 18.5544 22.9235 18.3503 23.1605C18.1462 23.3975 17.8633 23.5555 17.552 23.6064L2.66667 26.0477V39.375H24V35.4374C24 35.0893 24.1405 34.7555 24.3905 34.5093C24.6406 34.2632 24.9797 34.1249 25.3333 34.1249H30.6667C31.0203 34.1249 31.3594 34.2632 31.6095 34.5093C31.8595 34.7555 32 35.0893 32 35.4374V39.375H37.3333V3.20731L18.6667 10.0954Z" fill="#69ADA7"/>
<path fill-rule="evenodd" clip-rule="evenodd" d="M16 40.6876V22.3124H18.6667V40.6876H16Z" fill="#69ADA7"/>
<path d="M5.33331 28.8749H7.99998V31.5H5.33331V28.8749ZM10.6666 28.8749H13.3333V31.5H10.6666V28.8749ZM5.33331 34.125H7.99998V36.75H5.33331V34.125ZM10.6666 34.125H13.3333V36.75H10.6666V34.125ZM26.6666 7.87469H29.3333V10.4997H26.6666V7.87469ZM32 7.87469H34.6666V10.4997H32V7.87469ZM21.3333 13.1248H24V15.7498H21.3333V13.1248ZM26.6666 13.1248H29.3333V15.7498H26.6666V13.1248ZM32 13.1248H34.6666V15.7498H32V13.1248ZM26.6666 18.3748H29.3333V20.9998H26.6666V18.3748ZM32 18.3748H34.6666V20.9998H32V18.3748ZM21.3333 18.3748H24V20.9998H21.3333V18.3748ZM21.3333 23.6249H24V26.2499H21.3333V23.6249ZM26.6666 23.6249H29.3333V26.2499H26.6666V23.6249ZM32 23.6249H34.6666V26.2499H32V23.6249ZM21.3333 28.8749H24V31.5H21.3333V28.8749ZM26.6666 28.8749H29.3333V31.5H26.6666V28.8749ZM32 28.8749H34.6666V31.5H32V28.8749Z" fill="#69ADA7"/>
</svg>
