<svg width="34" height="41" viewBox="0 0 34 41" fill="none" xmlns="http://www.w3.org/2000/svg">
<path d="M16.6667 40.625C18.9583 40.625 20.8333 38.75 20.8333 36.4583H12.5C12.5 38.75 14.375 40.625 16.6667 40.625ZM29.1667 28.125V17.7083C29.1667 11.3125 25.7708 5.95833 19.7917 4.54167V3.125C19.7917 1.39583 18.3958 0 16.6667 0C14.9375 0 13.5417 1.39583 13.5417 3.125V4.54167C7.58333 5.95833 4.16667 11.2917 4.16667 17.7083V28.125L0 32.2917V34.375H33.3333V32.2917L29.1667 28.125ZM25 30.2083H8.33333V17.7083C8.33333 12.5417 11.4792 8.33333 16.6667 8.33333C21.8542 8.33333 25 12.5417 25 17.7083V30.2083Z" fill="#69ADA7"/>
</svg>
