<svg width="44" height="44" viewBox="0 0 44 44" fill="none" xmlns="http://www.w3.org/2000/svg">
<path d="M21.875 5.57656C24.9744 5.57656 27.4859 8.08813 27.4859 11.1875C27.4859 14.2869 24.9744 16.7984 21.875 16.7984C18.7756 16.7984 16.2641 14.2869 16.2641 11.1875C16.2641 8.08813 18.7756 5.57656 21.875 5.57656ZM21.875 29.6234C29.8105 29.6234 38.1734 33.5244 38.1734 35.2344V38.1734H5.57656V35.2344C5.57656 33.5244 13.9395 29.6234 21.875 29.6234ZM21.875 0.5C15.9702 0.5 11.1875 5.28266 11.1875 11.1875C11.1875 17.0923 15.9702 21.875 21.875 21.875C27.7798 21.875 32.5625 17.0923 32.5625 11.1875C32.5625 5.28266 27.7798 0.5 21.875 0.5ZM21.875 24.5469C14.7411 24.5469 0.5 28.1272 0.5 35.2344V43.25H43.25V35.2344C43.25 28.1272 29.0089 24.5469 21.875 24.5469Z" fill="#69ADA7"/>
</svg>
